solid OpenSCAD_Model
  facet normal 0.309019 0 0.951056
    outer loop
      vertex 43.7765 45 6.79778
      vertex 44.0751 35 6.70074
      vertex 44.0751 45 6.70074
    endloop
  endfacet
  facet normal 0.309019 0 0.951056
    outer loop
      vertex 44.0751 35 6.70074
      vertex 43.7765 45 6.79778
      vertex 43.7765 35 6.79778
    endloop
  endfacet
  facet normal 0 0 -1
    outer loop
      vertex 43.25 43.25 -6.9
      vertex 45 35 -6.9
      vertex 43.25 35 -6.9
    endloop
  endfacet
  facet normal 0 0 -1
    outer loop
      vertex 45 35 -6.9
      vertex 43.25 43.25 -6.9
      vertex 45 45 -6.9
    endloop
  endfacet
  facet normal 0 0 -1
    outer loop
      vertex 35 45 -6.9
      vertex 43.25 43.25 -6.9
      vertex 35 43.25 -6.9
    endloop
  endfacet
  facet normal 0 0 -1
    outer loop
      vertex 43.25 43.25 -6.9
      vertex 35 45 -6.9
      vertex 45 45 -6.9
    endloop
  endfacet
  facet normal 0.499993 0 0.86603
    outer loop
      vertex 44.362 45 6.57302
      vertex 44.6339 35 6.41601
      vertex 44.6339 45 6.41601
    endloop
  endfacet
  facet normal 0.499993 0 0.86603
    outer loop
      vertex 44.6339 35 6.41601
      vertex 44.362 45 6.57302
      vertex 44.362 35 6.57302
    endloop
  endfacet
  facet normal -0 0 1
    outer loop
      vertex 35 45 6.89589
      vertex 43.157 35 6.89589
      vertex 43.157 45 6.89589
    endloop
  endfacet
  facet normal 0 0 1
    outer loop
      vertex 43.157 35 6.89589
      vertex 35 45 6.89589
      vertex 35 35 6.89589
    endloop
  endfacet
  facet normal 0.669136 0 0.74314
    outer loop
      vertex 44.888 45 6.23144
      vertex 45 35 6.13056
      vertex 45 45 6.13056
    endloop
  endfacet
  facet normal 0.669136 0 0.74314
    outer loop
      vertex 45 35 6.13056
      vertex 44.888 45 6.23144
      vertex 44.888 35 6.23144
    endloop
  endfacet
  facet normal 0.207911 0 0.978148
    outer loop
      vertex 43.4693 45 6.86306
      vertex 43.7765 35 6.79778
      vertex 43.7765 45 6.79778
    endloop
  endfacet
  facet normal 0.207911 0 0.978148
    outer loop
      vertex 43.7765 35 6.79778
      vertex 43.4693 45 6.86306
      vertex 43.4693 35 6.86306
    endloop
  endfacet
  facet normal 0.104528 0 0.994522
    outer loop
      vertex 43.157 45 6.89589
      vertex 43.4693 35 6.86306
      vertex 43.4693 45 6.86306
    endloop
  endfacet
  facet normal 0.104528 0 0.994522
    outer loop
      vertex 43.4693 35 6.86306
      vertex 43.157 45 6.89589
      vertex 43.157 35 6.89589
    endloop
  endfacet
  facet normal 0.40674 0 0.913544
    outer loop
      vertex 44.0751 45 6.70074
      vertex 44.362 35 6.57302
      vertex 44.362 45 6.57302
    endloop
  endfacet
  facet normal 0.40674 0 0.913544
    outer loop
      vertex 44.362 35 6.57302
      vertex 44.0751 45 6.70074
      vertex 44.0751 35 6.70074
    endloop
  endfacet
  facet normal 0.587787 0 0.809016
    outer loop
      vertex 44.6339 45 6.41601
      vertex 44.888 35 6.23144
      vertex 44.888 45 6.23144
    endloop
  endfacet
  facet normal 0.587787 0 0.809016
    outer loop
      vertex 44.888 35 6.23144
      vertex 44.6339 45 6.41601
      vertex 44.6339 35 6.41601
    endloop
  endfacet
  facet normal 0 0 -1
    outer loop
      vertex 35 35 0.9
      vertex 43.25 43.25 0.9
      vertex 43.25 35 0.9
    endloop
  endfacet
  facet normal -0 0 -1
    outer loop
      vertex 43.25 43.25 0.9
      vertex 35 35 0.9
      vertex 35 43.25 0.9
    endloop
  endfacet
  facet normal -1 0 0
    outer loop
      vertex 43.25 35 -6.9
      vertex 43.25 43.25 0.9
      vertex 43.25 43.25 -6.9
    endloop
  endfacet
  facet normal -1 -0 0
    outer loop
      vertex 43.25 43.25 0.9
      vertex 43.25 35 -6.9
      vertex 43.25 35 0.9
    endloop
  endfacet
  facet normal 0 -1 0
    outer loop
      vertex 35 43.25 -6.9
      vertex 43.25 43.25 0.9
      vertex 35 43.25 0.9
    endloop
  endfacet
  facet normal 0 -1 -0
    outer loop
      vertex 43.25 43.25 0.9
      vertex 35 43.25 -6.9
      vertex 43.25 43.25 -6.9
    endloop
  endfacet
  facet normal -1 0 0
    outer loop
      vertex 35 43.25 0.9
      vertex 35 45 -6.9
      vertex 35 43.25 -6.9
    endloop
  endfacet
  facet normal -1 0 0
    outer loop
      vertex 35 45 -6.9
      vertex 35 43.25 0.9
      vertex 35 45 6.89589
    endloop
  endfacet
  facet normal -1 0 0
    outer loop
      vertex 35 35 6.89589
      vertex 35 43.25 0.9
      vertex 35 35 0.9
    endloop
  endfacet
  facet normal -1 0 0
    outer loop
      vertex 35 43.25 0.9
      vertex 35 35 6.89589
      vertex 35 45 6.89589
    endloop
  endfacet
  facet normal 1 -0 0
    outer loop
      vertex 45 35 6.13056
      vertex 45 45 -6.9
      vertex 45 45 6.13056
    endloop
  endfacet
  facet normal 1 0 0
    outer loop
      vertex 45 45 -6.9
      vertex 45 35 6.13056
      vertex 45 35 -6.9
    endloop
  endfacet
  facet normal 0 1 0
    outer loop
      vertex 45 45 6.13056
      vertex 43.157 45 6.89589
      vertex 43.4693 45 6.86306
    endloop
  endfacet
  facet normal 0 1 0
    outer loop
      vertex 45 45 6.13056
      vertex 43.4693 45 6.86306
      vertex 43.7765 45 6.79778
    endloop
  endfacet
  facet normal 0 1 0
    outer loop
      vertex 45 45 6.13056
      vertex 43.7765 45 6.79778
      vertex 44.0751 45 6.70074
    endloop
  endfacet
  facet normal 0 1 0
    outer loop
      vertex 45 45 6.13056
      vertex 44.0751 45 6.70074
      vertex 44.362 45 6.57302
    endloop
  endfacet
  facet normal 0 1 0
    outer loop
      vertex 45 45 6.13056
      vertex 44.362 45 6.57302
      vertex 44.6339 45 6.41601
    endloop
  endfacet
  facet normal 0 1 0
    outer loop
      vertex 45 45 6.13056
      vertex 44.6339 45 6.41601
      vertex 44.888 45 6.23144
    endloop
  endfacet
  facet normal 0 1 0
    outer loop
      vertex 43.157 45 6.89589
      vertex 45 45 6.13056
      vertex 45 45 -6.9
    endloop
  endfacet
  facet normal 0 1 0
    outer loop
      vertex 43.157 45 6.89589
      vertex 45 45 -6.9
      vertex 35 45 -6.9
    endloop
  endfacet
  facet normal 0 1 0
    outer loop
      vertex 43.157 45 6.89589
      vertex 35 45 -6.9
      vertex 35 45 6.89589
    endloop
  endfacet
  facet normal 0 -1 0
    outer loop
      vertex 35 35 0.9
      vertex 43.157 35 6.89589
      vertex 35 35 6.89589
    endloop
  endfacet
  facet normal 0 -1 0
    outer loop
      vertex 43.157 35 6.89589
      vertex 43.25 35 0.9
      vertex 43.4693 35 6.86306
    endloop
  endfacet
  facet normal 0 -1 -0
    outer loop
      vertex 43.4693 35 6.86306
      vertex 43.25 35 0.9
      vertex 43.7765 35 6.79778
    endloop
  endfacet
  facet normal 0 -1 -0
    outer loop
      vertex 43.7765 35 6.79778
      vertex 43.25 35 0.9
      vertex 44.0751 35 6.70074
    endloop
  endfacet
  facet normal 0 -1 -0
    outer loop
      vertex 44.0751 35 6.70074
      vertex 43.25 35 0.9
      vertex 44.362 35 6.57302
    endloop
  endfacet
  facet normal 0 -1 -0
    outer loop
      vertex 44.362 35 6.57302
      vertex 43.25 35 0.9
      vertex 44.6339 35 6.41601
    endloop
  endfacet
  facet normal -0 -1 0
    outer loop
      vertex 45 35 6.13056
      vertex 44.6339 35 6.41601
      vertex 43.25 35 0.9
    endloop
  endfacet
  facet normal 0 -1 -0
    outer loop
      vertex 43.157 35 6.89589
      vertex 35 35 0.9
      vertex 43.25 35 0.9
    endloop
  endfacet
  facet normal 0 -1 0
    outer loop
      vertex 44.6339 35 6.41601
      vertex 45 35 6.13056
      vertex 44.888 35 6.23144
    endloop
  endfacet
  facet normal 0 -1 0
    outer loop
      vertex 45 35 -6.9
      vertex 43.25 35 0.9
      vertex 43.25 35 -6.9
    endloop
  endfacet
  facet normal 0 -1 0
    outer loop
      vertex 43.25 35 0.9
      vertex 45 35 -6.9
      vertex 45 35 6.13056
    endloop
  endfacet
endsolid OpenSCAD_Model
