solid OpenSCAD_Model
  facet normal -1 0 0
    outer loop
      vertex -6 -0.299999 -10
      vertex -6 5.58579 10
      vertex -6 5.58579 -10
    endloop
  endfacet
  facet normal -1 -0 0
    outer loop
      vertex -6 5.58579 10
      vertex -6 -0.299999 -10
      vertex -6 -0.299999 10
    endloop
  endfacet
  facet normal 0 0 1
    outer loop
      vertex -3.91748 5.91633 10
      vertex -3.91748 5.58367 10
      vertex -3.9 5.75 10
    endloop
  endfacet
  facet normal 0 0 1
    outer loop
      vertex -3.96916 6.07539 10
      vertex -3.91748 5.58367 10
      vertex -3.91748 5.91633 10
    endloop
  endfacet
  facet normal 0 0 1
    outer loop
      vertex -3.96916 6.07539 10
      vertex -3.96916 5.42461 10
      vertex -3.91748 5.58367 10
    endloop
  endfacet
  facet normal 0 0 1
    outer loop
      vertex -4.05279 6.22023 10
      vertex -3.96916 5.42461 10
      vertex -3.96916 6.07539 10
    endloop
  endfacet
  facet normal 0 0 1
    outer loop
      vertex -4.05279 6.22023 10
      vertex -4.05279 5.27977 10
      vertex -3.96916 5.42461 10
    endloop
  endfacet
  facet normal 0 0 1
    outer loop
      vertex -4.16469 6.34452 10
      vertex -4.05279 5.27977 10
      vertex -4.05279 6.22023 10
    endloop
  endfacet
  facet normal 0 0 1
    outer loop
      vertex -4.16469 6.34452 10
      vertex -4.16469 5.15548 10
      vertex -4.05279 5.27977 10
    endloop
  endfacet
  facet normal 0 0 1
    outer loop
      vertex -4.3 6.44282 10
      vertex -4.16469 5.15548 10
      vertex -4.16469 6.34452 10
    endloop
  endfacet
  facet normal 0 0 1
    outer loop
      vertex -4.3 6.44282 10
      vertex -4.3 5.05718 10
      vertex -4.16469 5.15548 10
    endloop
  endfacet
  facet normal 0 0 1
    outer loop
      vertex -4.45279 6.51085 10
      vertex -4.3 5.05718 10
      vertex -4.3 6.44282 10
    endloop
  endfacet
  facet normal 0 0 1
    outer loop
      vertex -4.45279 6.51085 10
      vertex -4.45279 4.98915 10
      vertex -4.3 5.05718 10
    endloop
  endfacet
  facet normal 0 0 1
    outer loop
      vertex -4.61638 6.54562 10
      vertex -4.45279 4.98915 10
      vertex -4.45279 6.51085 10
    endloop
  endfacet
  facet normal 0 0 1
    outer loop
      vertex -4.61638 6.54562 10
      vertex -4.61638 4.95438 10
      vertex -4.45279 4.98915 10
    endloop
  endfacet
  facet normal -0 0 1
    outer loop
      vertex -4.78362 6.54562 10
      vertex -4.61638 4.95438 10
      vertex -4.61638 6.54562 10
    endloop
  endfacet
  facet normal -0 0 1
    outer loop
      vertex -4.8 4.95786 10
      vertex -4.61638 4.95438 10
      vertex -4.78362 6.54562 10
    endloop
  endfacet
  facet normal 0 0 1
    outer loop
      vertex -4.61638 4.95438 10
      vertex -4.8 4.95786 10
      vertex -4.78362 4.95438 10
    endloop
  endfacet
  facet normal -0 0 1
    outer loop
      vertex -5.41663 6.1 10
      vertex -4.8 4.95786 10
      vertex -4.94721 6.51085 10
    endloop
  endfacet
  facet normal -0 0 1
    outer loop
      vertex -4.94721 6.51085 10
      vertex -4.8 4.95786 10
      vertex -4.78362 6.54562 10
    endloop
  endfacet
  facet normal 0 0 1
    outer loop
      vertex 4.78362 6.54562 10
      vertex 4.8 4.95786 10
      vertex 4.94721 6.51085 10
    endloop
  endfacet
  facet normal -0 0 1
    outer loop
      vertex 4.61638 6.54562 10
      vertex 4.8 4.95786 10
      vertex 4.78362 6.54562 10
    endloop
  endfacet
  facet normal 0 0 1
    outer loop
      vertex 4.61638 4.95438 10
      vertex 4.8 4.95786 10
      vertex 4.61638 6.54562 10
    endloop
  endfacet
  facet normal 0 0 1
    outer loop
      vertex 4.8 4.95786 10
      vertex 4.61638 4.95438 10
      vertex 4.78362 4.95438 10
    endloop
  endfacet
  facet normal -0 0 1
    outer loop
      vertex 4.45279 6.51085 10
      vertex 4.61638 4.95438 10
      vertex 4.61638 6.54562 10
    endloop
  endfacet
  facet normal 0 0 1
    outer loop
      vertex 4.45279 6.51085 10
      vertex 4.45279 4.98915 10
      vertex 4.61638 4.95438 10
    endloop
  endfacet
  facet normal -0 0 1
    outer loop
      vertex 4.3 6.44282 10
      vertex 4.45279 4.98915 10
      vertex 4.45279 6.51085 10
    endloop
  endfacet
  facet normal 0 0 1
    outer loop
      vertex 4.3 6.44282 10
      vertex 4.3 5.05718 10
      vertex 4.45279 4.98915 10
    endloop
  endfacet
  facet normal -0 0 1
    outer loop
      vertex 4.16469 6.34452 10
      vertex 4.3 5.05718 10
      vertex 4.3 6.44282 10
    endloop
  endfacet
  facet normal 0 0 1
    outer loop
      vertex 4.16469 6.34452 10
      vertex 4.16469 5.15548 10
      vertex 4.3 5.05718 10
    endloop
  endfacet
  facet normal -0 0 1
    outer loop
      vertex 4.05279 6.22023 10
      vertex 4.16469 5.15548 10
      vertex 4.16469 6.34452 10
    endloop
  endfacet
  facet normal 0 0 1
    outer loop
      vertex 4.05279 6.22023 10
      vertex 4.05279 5.27977 10
      vertex 4.16469 5.15548 10
    endloop
  endfacet
  facet normal -0 0 1
    outer loop
      vertex 3.96916 6.07539 10
      vertex 4.05279 5.27977 10
      vertex 4.05279 6.22023 10
    endloop
  endfacet
  facet normal 0 0 1
    outer loop
      vertex 3.96916 6.07539 10
      vertex 3.96916 5.42461 10
      vertex 4.05279 5.27977 10
    endloop
  endfacet
  facet normal -0 0 1
    outer loop
      vertex 3.91748 5.91633 10
      vertex 3.96916 5.42461 10
      vertex 3.96916 6.07539 10
    endloop
  endfacet
  facet normal 0 0 1
    outer loop
      vertex 3.91748 5.91633 10
      vertex 3.91748 5.58367 10
      vertex 3.96916 5.42461 10
    endloop
  endfacet
  facet normal 0 -0 1
    outer loop
      vertex 3.91748 5.58367 10
      vertex 3.91748 5.91633 10
      vertex 3.9 5.75 10
    endloop
  endfacet
  facet normal 0 0 1
    outer loop
      vertex 4.8 4.95786 10
      vertex 6 5.38579 10
      vertex 5.48405 5.90173 10
    endloop
  endfacet
  facet normal 0 0 1
    outer loop
      vertex 5.43084 6.07539 10
      vertex 5.48405 5.90173 10
      vertex 5.48252 5.91633 10
    endloop
  endfacet
  facet normal 0 0 1
    outer loop
      vertex 5.48405 5.90173 10
      vertex 5.43084 6.07539 10
      vertex 4.8 4.95786 10
    endloop
  endfacet
  facet normal 0 0 1
    outer loop
      vertex 4.8 4.95786 10
      vertex 5.43084 6.07539 10
      vertex 5.34721 6.22023 10
    endloop
  endfacet
  facet normal 0 0 1
    outer loop
      vertex 4.8 4.95786 10
      vertex 5.34721 6.22023 10
      vertex 5.2353 6.34452 10
    endloop
  endfacet
  facet normal 0 0 1
    outer loop
      vertex 4.8 4.95786 10
      vertex 5.2353 6.34452 10
      vertex 5.1 6.44282 10
    endloop
  endfacet
  facet normal 0 0 1
    outer loop
      vertex 4.8 4.95786 10
      vertex 5.1 6.44282 10
      vertex 4.94721 6.51085 10
    endloop
  endfacet
  facet normal 0 0 1
    outer loop
      vertex 4.8 0.8 10
      vertex 6 5.38579 10
      vertex 4.8 4.95786 10
    endloop
  endfacet
  facet normal 0 0 1
    outer loop
      vertex 6 5.38579 10
      vertex 4.8 0.8 10
      vertex 6 -0.299999 10
    endloop
  endfacet
  facet normal 0 0 1
    outer loop
      vertex 4.8 0.8 10
      vertex 2.12132 -0.299999 10
      vertex 6 -0.299999 10
    endloop
  endfacet
  facet normal 0 0 1
    outer loop
      vertex 4.8 0.8 10
      vertex 7.62939e-07 -0.299999 10
      vertex 2.12132 -0.299999 10
    endloop
  endfacet
  facet normal 0 0 1
    outer loop
      vertex 4.8 0.8 10
      vertex -7.62939e-07 -0.299999 10
      vertex 7.62939e-07 -0.299999 10
    endloop
  endfacet
  facet normal -0 0 1
    outer loop
      vertex -4.8 0.8 10
      vertex -7.62939e-07 -0.299999 10
      vertex 4.8 0.8 10
    endloop
  endfacet
  facet normal 0 0 1
    outer loop
      vertex -7.62939e-07 -0.299999 10
      vertex -4.8 0.8 10
      vertex -2.12132 -0.299999 10
    endloop
  endfacet
  facet normal 0 0 1
    outer loop
      vertex -5.41663 6.1 10
      vertex -4.94721 6.51085 10
      vertex -5.1 6.44282 10
    endloop
  endfacet
  facet normal 0 0 1
    outer loop
      vertex -5.41663 6.1 10
      vertex -5.1 6.44282 10
      vertex -5.2353 6.34452 10
    endloop
  endfacet
  facet normal 0 0 1
    outer loop
      vertex -5.41663 6.1 10
      vertex -5.2353 6.34452 10
      vertex -5.34721 6.22023 10
    endloop
  endfacet
  facet normal -0 0 1
    outer loop
      vertex -6 5.58579 10
      vertex -4.8 4.95786 10
      vertex -5.41663 6.1 10
    endloop
  endfacet
  facet normal 0 0 1
    outer loop
      vertex -6 5.58579 10
      vertex -5.41663 6.1 10
      vertex -5.48579 6.1 10
    endloop
  endfacet
  facet normal 0 0 1
    outer loop
      vertex -4.8 4.95786 10
      vertex -6 5.58579 10
      vertex -4.8 0.8 10
    endloop
  endfacet
  facet normal 0 0 1
    outer loop
      vertex -4.8 0.8 10
      vertex -6 -0.299999 10
      vertex -2.12132 -0.299999 10
    endloop
  endfacet
  facet normal 0 0 1
    outer loop
      vertex -6 -0.299999 10
      vertex -4.8 0.8 10
      vertex -6 5.58579 10
    endloop
  endfacet
  facet normal 0 0 1
    outer loop
      vertex 2.12132 -0.299999 10
      vertex 8.48528 -8.78528 10
      vertex 9.54594 -7.72462 10
    endloop
  endfacet
  facet normal 0 0 1
    outer loop
      vertex 0 -0.3 10
      vertex 2.12132 -0.299999 10
      vertex 7.62939e-07 -0.299999 10
    endloop
  endfacet
  facet normal 0 0 1
    outer loop
      vertex 2.12132 -0.299999 10
      vertex 0 -0.3 10
      vertex 8.48528 -8.78528 10
    endloop
  endfacet
  facet normal -0 0 1
    outer loop
      vertex -2.12132 -0.299999 10
      vertex 0 -0.3 10
      vertex -7.62939e-07 -0.299999 10
    endloop
  endfacet
  facet normal 0 0 1
    outer loop
      vertex -2.12132 -0.299999 10
      vertex -8.48528 -8.78528 10
      vertex 0 -0.3 10
    endloop
  endfacet
  facet normal 0 -0 1
    outer loop
      vertex -8.48528 -8.78528 10
      vertex -2.12132 -0.299999 10
      vertex -9.54594 -7.72462 10
    endloop
  endfacet
  facet normal 1 -0 0
    outer loop
      vertex 6 -0.299999 10
      vertex 6 5.38579 -10
      vertex 6 5.38579 10
    endloop
  endfacet
  facet normal 1 0 0
    outer loop
      vertex 6 5.38579 -10
      vertex 6 -0.299999 10
      vertex 6 -0.299999 -10
    endloop
  endfacet
  facet normal 0 0 -1
    outer loop
      vertex 0 -0.3 -10
      vertex -2.12132 -0.299999 -10
      vertex -7.62939e-07 -0.299999 -10
    endloop
  endfacet
  facet normal 0 0 -1
    outer loop
      vertex -8.48528 -8.78528 -10
      vertex -2.12132 -0.299999 -10
      vertex 0 -0.3 -10
    endloop
  endfacet
  facet normal 0 0 -1
    outer loop
      vertex -2.12132 -0.299999 -10
      vertex -8.48528 -8.78528 -10
      vertex -9.54594 -7.72462 -10
    endloop
  endfacet
  facet normal 0 0 -1
    outer loop
      vertex 8.48528 -8.78528 -10
      vertex 2.12132 -0.299999 -10
      vertex 9.54594 -7.72462 -10
    endloop
  endfacet
  facet normal 0 0 -1
    outer loop
      vertex 0 -0.3 -10
      vertex 2.12132 -0.299999 -10
      vertex 8.48528 -8.78528 -10
    endloop
  endfacet
  facet normal -0 0 -1
    outer loop
      vertex 2.12132 -0.299999 -10
      vertex 0 -0.3 -10
      vertex 7.62939e-07 -0.299999 -10
    endloop
  endfacet
  facet normal 0 0 -1
    outer loop
      vertex 4.8 0.8 -10
      vertex 6 5.38579 -10
      vertex 6 -0.299999 -10
    endloop
  endfacet
  facet normal -0 0 -1
    outer loop
      vertex 6 5.38579 -10
      vertex 4.8 4.95786 -10
      vertex 5.48405 5.90173 -10
    endloop
  endfacet
  facet normal 0 -0 -1
    outer loop
      vertex 5.43084 6.07539 -10
      vertex 5.48405 5.90173 -10
      vertex 4.8 4.95786 -10
    endloop
  endfacet
  facet normal 0 0 -1
    outer loop
      vertex 5.48405 5.90173 -10
      vertex 5.43084 6.07539 -10
      vertex 5.48252 5.91633 -10
    endloop
  endfacet
  facet normal -0 0 -1
    outer loop
      vertex 5.43084 6.07539 -10
      vertex 4.8 4.95786 -10
      vertex 5.34721 6.22023 -10
    endloop
  endfacet
  facet normal -0 0 -1
    outer loop
      vertex 5.34721 6.22023 -10
      vertex 4.8 4.95786 -10
      vertex 5.2353 6.34452 -10
    endloop
  endfacet
  facet normal -0 0 -1
    outer loop
      vertex 5.2353 6.34452 -10
      vertex 4.8 4.95786 -10
      vertex 5.1 6.44282 -10
    endloop
  endfacet
  facet normal 0 0 -1
    outer loop
      vertex 6 5.38579 -10
      vertex 4.8 0.8 -10
      vertex 4.8 4.95786 -10
    endloop
  endfacet
  facet normal 0 0 -1
    outer loop
      vertex 2.12132 -0.299999 -10
      vertex 4.8 0.8 -10
      vertex 6 -0.299999 -10
    endloop
  endfacet
  facet normal 0 0 -1
    outer loop
      vertex 7.62939e-07 -0.299999 -10
      vertex 4.8 0.8 -10
      vertex 2.12132 -0.299999 -10
    endloop
  endfacet
  facet normal 0 0 -1
    outer loop
      vertex -7.62939e-07 -0.299999 -10
      vertex 4.8 0.8 -10
      vertex 7.62939e-07 -0.299999 -10
    endloop
  endfacet
  facet normal 0 0 -1
    outer loop
      vertex -4.8 0.8 -10
      vertex -7.62939e-07 -0.299999 -10
      vertex -2.12132 -0.299999 -10
    endloop
  endfacet
  facet normal 0 0 -1
    outer loop
      vertex -7.62939e-07 -0.299999 -10
      vertex -4.8 0.8 -10
      vertex 4.8 0.8 -10
    endloop
  endfacet
  facet normal 0 0 -1
    outer loop
      vertex -6 5.58579 -10
      vertex -4.8 4.95786 -10
      vertex -4.8 0.8 -10
    endloop
  endfacet
  facet normal 0 0 -1
    outer loop
      vertex -4.8 4.95786 -10
      vertex -5.41663 6.1 -10
      vertex -4.94721 6.51085 -10
    endloop
  endfacet
  facet normal 0 0 -1
    outer loop
      vertex -4.94721 6.51085 -10
      vertex -5.41663 6.1 -10
      vertex -5.1 6.44282 -10
    endloop
  endfacet
  facet normal 0 0 -1
    outer loop
      vertex -5.1 6.44282 -10
      vertex -5.41663 6.1 -10
      vertex -5.2353 6.34452 -10
    endloop
  endfacet
  facet normal 0 0 -1
    outer loop
      vertex -5.2353 6.34452 -10
      vertex -5.41663 6.1 -10
      vertex -5.34721 6.22023 -10
    endloop
  endfacet
  facet normal 0 0 -1
    outer loop
      vertex -4.8 4.95786 -10
      vertex -6 5.58579 -10
      vertex -5.41663 6.1 -10
    endloop
  endfacet
  facet normal 0 0 -1
    outer loop
      vertex -6 -0.299999 -10
      vertex -4.8 0.8 -10
      vertex -2.12132 -0.299999 -10
    endloop
  endfacet
  facet normal 0 0 -1
    outer loop
      vertex -6 5.58579 -10
      vertex -4.8 0.8 -10
      vertex -6 -0.299999 -10
    endloop
  endfacet
  facet normal -0 0 -1
    outer loop
      vertex -5.41663 6.1 -10
      vertex -6 5.58579 -10
      vertex -5.48579 6.1 -10
    endloop
  endfacet
  facet normal -0 0 -1
    outer loop
      vertex 5.1 6.44282 -10
      vertex 4.8 4.95786 -10
      vertex 4.94721 6.51085 -10
    endloop
  endfacet
  facet normal 0 0 -1
    outer loop
      vertex 4.61638 4.95438 -10
      vertex 4.8 4.95786 -10
      vertex 4.78362 4.95438 -10
    endloop
  endfacet
  facet normal 0 0 -1
    outer loop
      vertex 4.8 4.95786 -10
      vertex 4.78362 6.54562 -10
      vertex 4.94721 6.51085 -10
    endloop
  endfacet
  facet normal -0 0 -1
    outer loop
      vertex 4.8 4.95786 -10
      vertex 4.61638 4.95438 -10
      vertex 4.78362 6.54562 -10
    endloop
  endfacet
  facet normal 0 0 -1
    outer loop
      vertex 4.61638 4.95438 -10
      vertex 4.61638 6.54562 -10
      vertex 4.78362 6.54562 -10
    endloop
  endfacet
  facet normal 0 0 -1
    outer loop
      vertex 4.45279 4.98915 -10
      vertex 4.61638 6.54562 -10
      vertex 4.61638 4.95438 -10
    endloop
  endfacet
  facet normal 0 0 -1
    outer loop
      vertex 4.45279 4.98915 -10
      vertex 4.45279 6.51085 -10
      vertex 4.61638 6.54562 -10
    endloop
  endfacet
  facet normal 0 0 -1
    outer loop
      vertex 4.3 5.05718 -10
      vertex 4.45279 6.51085 -10
      vertex 4.45279 4.98915 -10
    endloop
  endfacet
  facet normal 0 0 -1
    outer loop
      vertex 4.3 5.05718 -10
      vertex 4.3 6.44282 -10
      vertex 4.45279 6.51085 -10
    endloop
  endfacet
  facet normal 0 0 -1
    outer loop
      vertex 4.16469 5.15548 -10
      vertex 4.3 6.44282 -10
      vertex 4.3 5.05718 -10
    endloop
  endfacet
  facet normal 0 0 -1
    outer loop
      vertex 4.16469 5.15548 -10
      vertex 4.16469 6.34452 -10
      vertex 4.3 6.44282 -10
    endloop
  endfacet
  facet normal 0 0 -1
    outer loop
      vertex 4.05279 5.27977 -10
      vertex 4.16469 6.34452 -10
      vertex 4.16469 5.15548 -10
    endloop
  endfacet
  facet normal 0 0 -1
    outer loop
      vertex 4.05279 5.27977 -10
      vertex 4.05279 6.22023 -10
      vertex 4.16469 6.34452 -10
    endloop
  endfacet
  facet normal 0 0 -1
    outer loop
      vertex 3.96916 5.42461 -10
      vertex 4.05279 6.22023 -10
      vertex 4.05279 5.27977 -10
    endloop
  endfacet
  facet normal 0 0 -1
    outer loop
      vertex 3.96916 5.42461 -10
      vertex 3.96916 6.07539 -10
      vertex 4.05279 6.22023 -10
    endloop
  endfacet
  facet normal 0 0 -1
    outer loop
      vertex 3.91748 5.58367 -10
      vertex 3.96916 6.07539 -10
      vertex 3.96916 5.42461 -10
    endloop
  endfacet
  facet normal 0 0 -1
    outer loop
      vertex 3.91748 5.58367 -10
      vertex 3.91748 5.91633 -10
      vertex 3.96916 6.07539 -10
    endloop
  endfacet
  facet normal 0 -0 -1
    outer loop
      vertex 3.91748 5.91633 -10
      vertex 3.91748 5.58367 -10
      vertex 3.9 5.75 -10
    endloop
  endfacet
  facet normal 0 0 -1
    outer loop
      vertex -3.91748 5.58367 -10
      vertex -3.91748 5.91633 -10
      vertex -3.9 5.75 -10
    endloop
  endfacet
  facet normal 0 0 -1
    outer loop
      vertex -3.96916 5.42461 -10
      vertex -3.91748 5.91633 -10
      vertex -3.91748 5.58367 -10
    endloop
  endfacet
  facet normal 0 0 -1
    outer loop
      vertex -3.96916 5.42461 -10
      vertex -3.96916 6.07539 -10
      vertex -3.91748 5.91633 -10
    endloop
  endfacet
  facet normal 0 0 -1
    outer loop
      vertex -4.05279 5.27977 -10
      vertex -3.96916 6.07539 -10
      vertex -3.96916 5.42461 -10
    endloop
  endfacet
  facet normal 0 0 -1
    outer loop
      vertex -4.05279 5.27977 -10
      vertex -4.05279 6.22023 -10
      vertex -3.96916 6.07539 -10
    endloop
  endfacet
  facet normal 0 0 -1
    outer loop
      vertex -4.16469 5.15548 -10
      vertex -4.05279 6.22023 -10
      vertex -4.05279 5.27977 -10
    endloop
  endfacet
  facet normal 0 0 -1
    outer loop
      vertex -4.16469 5.15548 -10
      vertex -4.16469 6.34452 -10
      vertex -4.05279 6.22023 -10
    endloop
  endfacet
  facet normal 0 0 -1
    outer loop
      vertex -4.3 5.05718 -10
      vertex -4.16469 6.34452 -10
      vertex -4.16469 5.15548 -10
    endloop
  endfacet
  facet normal 0 0 -1
    outer loop
      vertex -4.3 5.05718 -10
      vertex -4.3 6.44282 -10
      vertex -4.16469 6.34452 -10
    endloop
  endfacet
  facet normal 0 0 -1
    outer loop
      vertex -4.45279 4.98915 -10
      vertex -4.3 6.44282 -10
      vertex -4.3 5.05718 -10
    endloop
  endfacet
  facet normal 0 0 -1
    outer loop
      vertex -4.45279 4.98915 -10
      vertex -4.45279 6.51085 -10
      vertex -4.3 6.44282 -10
    endloop
  endfacet
  facet normal 0 0 -1
    outer loop
      vertex -4.61638 4.95438 -10
      vertex -4.45279 6.51085 -10
      vertex -4.45279 4.98915 -10
    endloop
  endfacet
  facet normal 0 0 -1
    outer loop
      vertex -4.61638 4.95438 -10
      vertex -4.61638 6.54562 -10
      vertex -4.45279 6.51085 -10
    endloop
  endfacet
  facet normal 0 0 -1
    outer loop
      vertex -4.8 4.95786 -10
      vertex -4.61638 4.95438 -10
      vertex -4.78362 4.95438 -10
    endloop
  endfacet
  facet normal 0 0 -1
    outer loop
      vertex -4.61638 4.95438 -10
      vertex -4.8 4.95786 -10
      vertex -4.61638 6.54562 -10
    endloop
  endfacet
  facet normal -0 0 -1
    outer loop
      vertex -4.61638 6.54562 -10
      vertex -4.8 4.95786 -10
      vertex -4.78362 6.54562 -10
    endloop
  endfacet
  facet normal 0 0 -1
    outer loop
      vertex -4.78362 6.54562 -10
      vertex -4.8 4.95786 -10
      vertex -4.94721 6.51085 -10
    endloop
  endfacet
  facet normal 0 -1 0
    outer loop
      vertex -6 -0.299999 -10
      vertex -2.12132 -0.299999 10
      vertex -6 -0.299999 10
    endloop
  endfacet
  facet normal 0 -1 -0
    outer loop
      vertex -2.12132 -0.299999 10
      vertex -6 -0.299999 -10
      vertex -2.12132 -0.299999 -10
    endloop
  endfacet
  facet normal 0 -1 0
    outer loop
      vertex 2.12132 -0.299999 -10
      vertex 6 -0.299999 10
      vertex 2.12132 -0.299999 10
    endloop
  endfacet
  facet normal 0 -1 -0
    outer loop
      vertex 6 -0.299999 10
      vertex 2.12132 -0.299999 -10
      vertex 6 -0.299999 -10
    endloop
  endfacet
  facet normal 0 -1 0
    outer loop
      vertex -7.62939e-07 -0.299999 -10
      vertex 7.62939e-07 -0.299999 10
      vertex -7.62939e-07 -0.299999 10
    endloop
  endfacet
  facet normal 0 -1 -0
    outer loop
      vertex 7.62939e-07 -0.299999 10
      vertex -7.62939e-07 -0.299999 -10
      vertex 7.62939e-07 -0.299999 -10
    endloop
  endfacet
  facet normal 0 1 -0
    outer loop
      vertex -5.41663 6.1 -10
      vertex -5.48579 6.1 10
      vertex -5.41663 6.1 10
    endloop
  endfacet
  facet normal 0 1 0
    outer loop
      vertex -5.48579 6.1 10
      vertex -5.41663 6.1 -10
      vertex -5.48579 6.1 -10
    endloop
  endfacet
  facet normal 1 -0 0
    outer loop
      vertex -4.8 0.8 10
      vertex -4.8 4.95786 -10
      vertex -4.8 4.95786 10
    endloop
  endfacet
  facet normal 1 0 0
    outer loop
      vertex -4.8 4.95786 -10
      vertex -4.8 0.8 10
      vertex -4.8 0.8 -10
    endloop
  endfacet
  facet normal -1 0 0
    outer loop
      vertex 4.8 0.8 -10
      vertex 4.8 4.95786 10
      vertex 4.8 4.95786 -10
    endloop
  endfacet
  facet normal -1 -0 0
    outer loop
      vertex 4.8 4.95786 10
      vertex 4.8 0.8 -10
      vertex 4.8 0.8 10
    endloop
  endfacet
  facet normal 0 1 -0
    outer loop
      vertex 4.8 0.8 -10
      vertex -4.8 0.8 10
      vertex 4.8 0.8 10
    endloop
  endfacet
  facet normal 0 1 0
    outer loop
      vertex -4.8 0.8 10
      vertex 4.8 0.8 -10
      vertex -4.8 0.8 -10
    endloop
  endfacet
  facet normal -0.707107 0.707107 0
    outer loop
      vertex -6 5.58579 -10
      vertex -5.48579 6.1 10
      vertex -5.48579 6.1 -10
    endloop
  endfacet
  facet normal -0.707107 0.707107 0
    outer loop
      vertex -5.48579 6.1 10
      vertex -6 5.58579 -10
      vertex -6 5.58579 10
    endloop
  endfacet
  facet normal 0.707106 0.707107 -0
    outer loop
      vertex 6 5.38579 -10
      vertex 5.48405 5.90173 10
      vertex 6 5.38579 10
    endloop
  endfacet
  facet normal 0.707106 0.707107 0
    outer loop
      vertex 5.48405 5.90173 10
      vertex 6 5.38579 -10
      vertex 5.48405 5.90173 -10
    endloop
  endfacet
  facet normal 0.866026 0.5 0
    outer loop
      vertex -3.96916 6.07539 10
      vertex -4.05279 6.22023 -10
      vertex -4.05279 6.22023 10
    endloop
  endfacet
  facet normal 0.866026 0.5 0
    outer loop
      vertex -4.05279 6.22023 -10
      vertex -3.96916 6.07539 10
      vertex -3.96916 6.07539 -10
    endloop
  endfacet
  facet normal 0.951057 0.309015 0
    outer loop
      vertex -3.91748 5.91633 10
      vertex -3.96916 6.07539 -10
      vertex -3.96916 6.07539 10
    endloop
  endfacet
  facet normal 0.951057 0.309015 0
    outer loop
      vertex -3.96916 6.07539 -10
      vertex -3.91748 5.91633 10
      vertex -3.91748 5.91633 -10
    endloop
  endfacet
  facet normal 0.207909 0.978148 -0
    outer loop
      vertex -4.45279 6.51085 -10
      vertex -4.61638 6.54562 10
      vertex -4.45279 6.51085 10
    endloop
  endfacet
  facet normal 0.207909 0.978148 0
    outer loop
      vertex -4.61638 6.54562 10
      vertex -4.45279 6.51085 -10
      vertex -4.61638 6.54562 -10
    endloop
  endfacet
  facet normal 0.40674 0.913544 -0
    outer loop
      vertex -4.3 6.44282 -10
      vertex -4.45279 6.51085 10
      vertex -4.3 6.44282 10
    endloop
  endfacet
  facet normal 0.40674 0.913544 0
    outer loop
      vertex -4.45279 6.51085 10
      vertex -4.3 6.44282 -10
      vertex -4.45279 6.51085 -10
    endloop
  endfacet
  facet normal -0.20791 0.978148 0
    outer loop
      vertex -4.78362 6.54562 -10
      vertex -4.94721 6.51085 10
      vertex -4.78362 6.54562 10
    endloop
  endfacet
  facet normal -0.20791 0.978148 0
    outer loop
      vertex -4.94721 6.51085 10
      vertex -4.78362 6.54562 -10
      vertex -4.94721 6.51085 -10
    endloop
  endfacet
  facet normal -0.866025 0.5 0
    outer loop
      vertex -5.41663 6.1 -10
      vertex -5.34721 6.22023 10
      vertex -5.34721 6.22023 -10
    endloop
  endfacet
  facet normal -0.866025 0.5 0
    outer loop
      vertex -5.34721 6.22023 10
      vertex -5.41663 6.1 -10
      vertex -5.41663 6.1 10
    endloop
  endfacet
  facet normal 0.994522 -0.104528 0
    outer loop
      vertex -3.91748 5.58367 10
      vertex -3.9 5.75 -10
      vertex -3.9 5.75 10
    endloop
  endfacet
  facet normal 0.994522 -0.104528 0
    outer loop
      vertex -3.9 5.75 -10
      vertex -3.91748 5.58367 10
      vertex -3.91748 5.58367 -10
    endloop
  endfacet
  facet normal 0.743145 0.66913 0
    outer loop
      vertex -4.05279 6.22023 10
      vertex -4.16469 6.34452 -10
      vertex -4.16469 6.34452 10
    endloop
  endfacet
  facet normal 0.743145 0.66913 0
    outer loop
      vertex -4.16469 6.34452 -10
      vertex -4.05279 6.22023 10
      vertex -4.05279 6.22023 -10
    endloop
  endfacet
  facet normal 0 1 -0
    outer loop
      vertex -4.61638 6.54562 -10
      vertex -4.78362 6.54562 10
      vertex -4.61638 6.54562 10
    endloop
  endfacet
  facet normal 0 1 0
    outer loop
      vertex -4.78362 6.54562 10
      vertex -4.61638 6.54562 -10
      vertex -4.78362 6.54562 -10
    endloop
  endfacet
  facet normal 0.587783 0.809019 -0
    outer loop
      vertex -4.16469 6.34452 -10
      vertex -4.3 6.44282 10
      vertex -4.16469 6.34452 10
    endloop
  endfacet
  facet normal 0.587783 0.809019 0
    outer loop
      vertex -4.3 6.44282 10
      vertex -4.16469 6.34452 -10
      vertex -4.3 6.44282 -10
    endloop
  endfacet
  facet normal -0.743145 0.66913 0
    outer loop
      vertex -5.34721 6.22023 -10
      vertex -5.2353 6.34452 10
      vertex -5.2353 6.34452 -10
    endloop
  endfacet
  facet normal -0.743145 0.66913 0
    outer loop
      vertex -5.2353 6.34452 10
      vertex -5.34721 6.22023 -10
      vertex -5.34721 6.22023 10
    endloop
  endfacet
  facet normal -0.40674 0.913544 0
    outer loop
      vertex -4.94721 6.51085 -10
      vertex -5.1 6.44282 10
      vertex -4.94721 6.51085 10
    endloop
  endfacet
  facet normal -0.40674 0.913544 0
    outer loop
      vertex -5.1 6.44282 10
      vertex -4.94721 6.51085 -10
      vertex -5.1 6.44282 -10
    endloop
  endfacet
  facet normal -0.587783 0.809019 0
    outer loop
      vertex -5.1 6.44282 -10
      vertex -5.2353 6.34452 10
      vertex -5.1 6.44282 10
    endloop
  endfacet
  facet normal -0.587783 0.809019 0
    outer loop
      vertex -5.2353 6.34452 10
      vertex -5.1 6.44282 -10
      vertex -5.2353 6.34452 -10
    endloop
  endfacet
  facet normal 0.994522 0.104528 0
    outer loop
      vertex -3.9 5.75 10
      vertex -3.91748 5.91633 -10
      vertex -3.91748 5.91633 10
    endloop
  endfacet
  facet normal 0.994522 0.104528 0
    outer loop
      vertex -3.91748 5.91633 -10
      vertex -3.9 5.75 10
      vertex -3.9 5.75 -10
    endloop
  endfacet
  facet normal 0.587783 -0.809019 0
    outer loop
      vertex -4.3 5.05718 -10
      vertex -4.16469 5.15548 10
      vertex -4.3 5.05718 10
    endloop
  endfacet
  facet normal 0.587783 -0.809019 0
    outer loop
      vertex -4.16469 5.15548 10
      vertex -4.3 5.05718 -10
      vertex -4.16469 5.15548 -10
    endloop
  endfacet
  facet normal 0.951057 -0.309015 0
    outer loop
      vertex -3.96916 5.42461 10
      vertex -3.91748 5.58367 -10
      vertex -3.91748 5.58367 10
    endloop
  endfacet
  facet normal 0.951057 -0.309015 0
    outer loop
      vertex -3.91748 5.58367 -10
      vertex -3.96916 5.42461 10
      vertex -3.96916 5.42461 -10
    endloop
  endfacet
  facet normal -0.207911 -0.978148 0
    outer loop
      vertex -4.8 4.95786 -10
      vertex -4.78362 4.95438 10
      vertex -4.8 4.95786 10
    endloop
  endfacet
  facet normal -0.207911 -0.978148 -0
    outer loop
      vertex -4.78362 4.95438 10
      vertex -4.8 4.95786 -10
      vertex -4.78362 4.95438 -10
    endloop
  endfacet
  facet normal 0.207909 -0.978148 0
    outer loop
      vertex -4.61638 4.95438 -10
      vertex -4.45279 4.98915 10
      vertex -4.61638 4.95438 10
    endloop
  endfacet
  facet normal 0.207909 -0.978148 0
    outer loop
      vertex -4.45279 4.98915 10
      vertex -4.61638 4.95438 -10
      vertex -4.45279 4.98915 -10
    endloop
  endfacet
  facet normal 0.40674 -0.913544 0
    outer loop
      vertex -4.45279 4.98915 -10
      vertex -4.3 5.05718 10
      vertex -4.45279 4.98915 10
    endloop
  endfacet
  facet normal 0.40674 -0.913544 0
    outer loop
      vertex -4.3 5.05718 10
      vertex -4.45279 4.98915 -10
      vertex -4.3 5.05718 -10
    endloop
  endfacet
  facet normal 0.743145 -0.66913 0
    outer loop
      vertex -4.16469 5.15548 10
      vertex -4.05279 5.27977 -10
      vertex -4.05279 5.27977 10
    endloop
  endfacet
  facet normal 0.743145 -0.66913 0
    outer loop
      vertex -4.05279 5.27977 -10
      vertex -4.16469 5.15548 10
      vertex -4.16469 5.15548 -10
    endloop
  endfacet
  facet normal 0.866026 -0.5 0
    outer loop
      vertex -4.05279 5.27977 10
      vertex -3.96916 5.42461 -10
      vertex -3.96916 5.42461 10
    endloop
  endfacet
  facet normal 0.866026 -0.5 0
    outer loop
      vertex -3.96916 5.42461 -10
      vertex -4.05279 5.27977 10
      vertex -4.05279 5.27977 -10
    endloop
  endfacet
  facet normal 0 -1 0
    outer loop
      vertex -4.78362 4.95438 -10
      vertex -4.61638 4.95438 10
      vertex -4.78362 4.95438 10
    endloop
  endfacet
  facet normal 0 -1 -0
    outer loop
      vertex -4.61638 4.95438 10
      vertex -4.78362 4.95438 -10
      vertex -4.61638 4.95438 -10
    endloop
  endfacet
  facet normal 0.994521 0.104534 0
    outer loop
      vertex 5.48405 5.90173 10
      vertex 5.48252 5.91633 -10
      vertex 5.48252 5.91633 10
    endloop
  endfacet
  facet normal 0.994521 0.104534 0
    outer loop
      vertex 5.48252 5.91633 -10
      vertex 5.48405 5.90173 10
      vertex 5.48405 5.90173 -10
    endloop
  endfacet
  facet normal -0.994522 -0.104528 0
    outer loop
      vertex 3.91748 5.58367 -10
      vertex 3.9 5.75 10
      vertex 3.9 5.75 -10
    endloop
  endfacet
  facet normal -0.994522 -0.104528 0
    outer loop
      vertex 3.9 5.75 10
      vertex 3.91748 5.58367 -10
      vertex 3.91748 5.58367 10
    endloop
  endfacet
  facet normal -0.207909 0.978148 0
    outer loop
      vertex 4.61638 6.54562 -10
      vertex 4.45279 6.51085 10
      vertex 4.61638 6.54562 10
    endloop
  endfacet
  facet normal -0.207909 0.978148 0
    outer loop
      vertex 4.45279 6.51085 10
      vertex 4.61638 6.54562 -10
      vertex 4.45279 6.51085 -10
    endloop
  endfacet
  facet normal 0.207911 -0.978148 0
    outer loop
      vertex 4.78362 4.95438 -10
      vertex 4.8 4.95786 10
      vertex 4.78362 4.95438 10
    endloop
  endfacet
  facet normal 0.207911 -0.978148 0
    outer loop
      vertex 4.8 4.95786 10
      vertex 4.78362 4.95438 -10
      vertex 4.8 4.95786 -10
    endloop
  endfacet
  facet normal 0.587783 0.809019 -0
    outer loop
      vertex 5.2353 6.34452 -10
      vertex 5.1 6.44282 10
      vertex 5.2353 6.34452 10
    endloop
  endfacet
  facet normal 0.587783 0.809019 0
    outer loop
      vertex 5.1 6.44282 10
      vertex 5.2353 6.34452 -10
      vertex 5.1 6.44282 -10
    endloop
  endfacet
  facet normal -0.743145 0.66913 0
    outer loop
      vertex 4.05279 6.22023 -10
      vertex 4.16469 6.34452 10
      vertex 4.16469 6.34452 -10
    endloop
  endfacet
  facet normal -0.743145 0.66913 0
    outer loop
      vertex 4.16469 6.34452 10
      vertex 4.05279 6.22023 -10
      vertex 4.05279 6.22023 10
    endloop
  endfacet
  facet normal -0.587783 0.809019 0
    outer loop
      vertex 4.3 6.44282 -10
      vertex 4.16469 6.34452 10
      vertex 4.3 6.44282 10
    endloop
  endfacet
  facet normal -0.587783 0.809019 0
    outer loop
      vertex 4.16469 6.34452 10
      vertex 4.3 6.44282 -10
      vertex 4.16469 6.34452 -10
    endloop
  endfacet
  facet normal 0.866026 0.5 0
    outer loop
      vertex 5.43084 6.07539 10
      vertex 5.34721 6.22023 -10
      vertex 5.34721 6.22023 10
    endloop
  endfacet
  facet normal 0.866026 0.5 0
    outer loop
      vertex 5.34721 6.22023 -10
      vertex 5.43084 6.07539 10
      vertex 5.43084 6.07539 -10
    endloop
  endfacet
  facet normal 0.951057 0.309015 0
    outer loop
      vertex 5.48252 5.91633 10
      vertex 5.43084 6.07539 -10
      vertex 5.43084 6.07539 10
    endloop
  endfacet
  facet normal 0.951057 0.309015 0
    outer loop
      vertex 5.43084 6.07539 -10
      vertex 5.48252 5.91633 10
      vertex 5.48252 5.91633 -10
    endloop
  endfacet
  facet normal 0.743145 0.66913 0
    outer loop
      vertex 5.34721 6.22023 10
      vertex 5.2353 6.34452 -10
      vertex 5.2353 6.34452 10
    endloop
  endfacet
  facet normal 0.743145 0.66913 0
    outer loop
      vertex 5.2353 6.34452 -10
      vertex 5.34721 6.22023 10
      vertex 5.34721 6.22023 -10
    endloop
  endfacet
  facet normal 0.20791 0.978148 -0
    outer loop
      vertex 4.94721 6.51085 -10
      vertex 4.78362 6.54562 10
      vertex 4.94721 6.51085 10
    endloop
  endfacet
  facet normal 0.20791 0.978148 0
    outer loop
      vertex 4.78362 6.54562 10
      vertex 4.94721 6.51085 -10
      vertex 4.78362 6.54562 -10
    endloop
  endfacet
  facet normal 0 1 -0
    outer loop
      vertex 4.78362 6.54562 -10
      vertex 4.61638 6.54562 10
      vertex 4.78362 6.54562 10
    endloop
  endfacet
  facet normal 0 1 0
    outer loop
      vertex 4.61638 6.54562 10
      vertex 4.78362 6.54562 -10
      vertex 4.61638 6.54562 -10
    endloop
  endfacet
  facet normal 0.40674 0.913544 -0
    outer loop
      vertex 5.1 6.44282 -10
      vertex 4.94721 6.51085 10
      vertex 5.1 6.44282 10
    endloop
  endfacet
  facet normal 0.40674 0.913544 0
    outer loop
      vertex 4.94721 6.51085 10
      vertex 5.1 6.44282 -10
      vertex 4.94721 6.51085 -10
    endloop
  endfacet
  facet normal -0.951057 0.309015 0
    outer loop
      vertex 3.91748 5.91633 -10
      vertex 3.96916 6.07539 10
      vertex 3.96916 6.07539 -10
    endloop
  endfacet
  facet normal -0.951057 0.309015 0
    outer loop
      vertex 3.96916 6.07539 10
      vertex 3.91748 5.91633 -10
      vertex 3.91748 5.91633 10
    endloop
  endfacet
  facet normal -0.866026 0.5 0
    outer loop
      vertex 3.96916 6.07539 -10
      vertex 4.05279 6.22023 10
      vertex 4.05279 6.22023 -10
    endloop
  endfacet
  facet normal -0.866026 0.5 0
    outer loop
      vertex 4.05279 6.22023 10
      vertex 3.96916 6.07539 -10
      vertex 3.96916 6.07539 10
    endloop
  endfacet
  facet normal -0.994522 0.104528 0
    outer loop
      vertex 3.9 5.75 -10
      vertex 3.91748 5.91633 10
      vertex 3.91748 5.91633 -10
    endloop
  endfacet
  facet normal -0.994522 0.104528 0
    outer loop
      vertex 3.91748 5.91633 10
      vertex 3.9 5.75 -10
      vertex 3.9 5.75 10
    endloop
  endfacet
  facet normal -0.40674 0.913544 0
    outer loop
      vertex 4.45279 6.51085 -10
      vertex 4.3 6.44282 10
      vertex 4.45279 6.51085 10
    endloop
  endfacet
  facet normal -0.40674 0.913544 0
    outer loop
      vertex 4.3 6.44282 10
      vertex 4.45279 6.51085 -10
      vertex 4.3 6.44282 -10
    endloop
  endfacet
  facet normal -0.951057 -0.309015 0
    outer loop
      vertex 3.96916 5.42461 -10
      vertex 3.91748 5.58367 10
      vertex 3.91748 5.58367 -10
    endloop
  endfacet
  facet normal -0.951057 -0.309015 0
    outer loop
      vertex 3.91748 5.58367 10
      vertex 3.96916 5.42461 -10
      vertex 3.96916 5.42461 10
    endloop
  endfacet
  facet normal -0.743145 -0.66913 0
    outer loop
      vertex 4.16469 5.15548 -10
      vertex 4.05279 5.27977 10
      vertex 4.05279 5.27977 -10
    endloop
  endfacet
  facet normal -0.743145 -0.66913 0
    outer loop
      vertex 4.05279 5.27977 10
      vertex 4.16469 5.15548 -10
      vertex 4.16469 5.15548 10
    endloop
  endfacet
  facet normal -0.207909 -0.978148 0
    outer loop
      vertex 4.45279 4.98915 -10
      vertex 4.61638 4.95438 10
      vertex 4.45279 4.98915 10
    endloop
  endfacet
  facet normal -0.207909 -0.978148 -0
    outer loop
      vertex 4.61638 4.95438 10
      vertex 4.45279 4.98915 -10
      vertex 4.61638 4.95438 -10
    endloop
  endfacet
  facet normal -0.587783 -0.809019 0
    outer loop
      vertex 4.16469 5.15548 -10
      vertex 4.3 5.05718 10
      vertex 4.16469 5.15548 10
    endloop
  endfacet
  facet normal -0.587783 -0.809019 -0
    outer loop
      vertex 4.3 5.05718 10
      vertex 4.16469 5.15548 -10
      vertex 4.3 5.05718 -10
    endloop
  endfacet
  facet normal -0.866026 -0.5 0
    outer loop
      vertex 4.05279 5.27977 -10
      vertex 3.96916 5.42461 10
      vertex 3.96916 5.42461 -10
    endloop
  endfacet
  facet normal -0.866026 -0.5 0
    outer loop
      vertex 3.96916 5.42461 10
      vertex 4.05279 5.27977 -10
      vertex 4.05279 5.27977 10
    endloop
  endfacet
  facet normal -0.40674 -0.913544 0
    outer loop
      vertex 4.3 5.05718 -10
      vertex 4.45279 4.98915 10
      vertex 4.3 5.05718 10
    endloop
  endfacet
  facet normal -0.40674 -0.913544 -0
    outer loop
      vertex 4.45279 4.98915 10
      vertex 4.3 5.05718 -10
      vertex 4.45279 4.98915 -10
    endloop
  endfacet
  facet normal 0 -1 0
    outer loop
      vertex 4.61638 4.95438 -10
      vertex 4.78362 4.95438 10
      vertex 4.61638 4.95438 10
    endloop
  endfacet
  facet normal 0 -1 -0
    outer loop
      vertex 4.78362 4.95438 10
      vertex 4.61638 4.95438 -10
      vertex 4.78362 4.95438 -10
    endloop
  endfacet
  facet normal -0.712567 0.701604 0
    outer loop
      vertex 0 -0.3 -10
      vertex 7.62939e-07 -0.299999 10
      vertex 7.62939e-07 -0.299999 -10
    endloop
  endfacet
  facet normal -0.712567 0.701604 0
    outer loop
      vertex 7.62939e-07 -0.299999 10
      vertex 0 -0.3 -10
      vertex 0 -0.3 10
    endloop
  endfacet
  facet normal 0.707107 -0.707107 0
    outer loop
      vertex 8.48528 -8.78528 -10
      vertex 9.54594 -7.72462 10
      vertex 8.48528 -8.78528 10
    endloop
  endfacet
  facet normal 0.707107 -0.707107 0
    outer loop
      vertex 9.54594 -7.72462 10
      vertex 8.48528 -8.78528 -10
      vertex 9.54594 -7.72462 -10
    endloop
  endfacet
  facet normal 0.707107 0.707107 0
    outer loop
      vertex 2.12132 -0.299999 10
      vertex 6.01041 -4.18909 0
      vertex 2.12132 -0.299999 -10
    endloop
  endfacet
  facet normal 0.707107 0.707107 -2.70472e-09
    outer loop
      vertex 2.12132 -0.299999 10
      vertex 6.02586 -4.20454 0.207911
      vertex 6.01041 -4.18909 0
    endloop
  endfacet
  facet normal 0.707105 0.707108 -1.0822e-06
    outer loop
      vertex 2.12132 -0.299999 10
      vertex 6.07154 -4.25022 0.406736
      vertex 6.02586 -4.20454 0.207911
    endloop
  endfacet
  facet normal 0.707107 0.707107 8.74902e-09
    outer loop
      vertex 2.12132 -0.299999 10
      vertex 6.14545 -4.32413 0.587785
      vertex 6.07154 -4.25022 0.406736
    endloop
  endfacet
  facet normal 0.707107 0.707107 1.07157e-08
    outer loop
      vertex 2.12132 -0.299999 10
      vertex 6.24437 -4.42305 0.743144
      vertex 6.14545 -4.32413 0.587785
    endloop
  endfacet
  facet normal 0.707107 0.707107 1.24942e-08
    outer loop
      vertex 2.12132 -0.299999 10
      vertex 6.36396 -4.54264 0.866025
      vertex 6.24437 -4.42305 0.743144
    endloop
  endfacet
  facet normal 0.707107 0.707107 1.42806e-08
    outer loop
      vertex 2.12132 -0.299999 10
      vertex 6.49901 -4.67769 0.951056
      vertex 6.36396 -4.54264 0.866025
    endloop
  endfacet
  facet normal 0.707107 0.707107 1.62653e-08
    outer loop
      vertex 2.12132 -0.299999 10
      vertex 6.6436 -4.82228 0.994521
      vertex 6.49901 -4.67769 0.951056
    endloop
  endfacet
  facet normal 0.707107 0.707107 3.01231e-08
    outer loop
      vertex 9.54594 -7.72462 10
      vertex 6.6436 -4.82228 0.994521
      vertex 2.12132 -0.299999 10
    endloop
  endfacet
  facet normal 0.707107 0.707107 3.74411e-08
    outer loop
      vertex 6.6436 -4.82228 0.994521
      vertex 9.54594 -7.72462 10
      vertex 6.79143 -4.97011 0.994521
    endloop
  endfacet
  facet normal 0.707108 0.707106 -6.18902e-07
    outer loop
      vertex 6.79143 -4.97011 0.994521
      vertex 9.54594 -7.72462 10
      vertex 6.93602 -5.1147 0.951056
    endloop
  endfacet
  facet normal 0.707106 0.707108 6.0944e-07
    outer loop
      vertex 6.93602 -5.1147 0.951056
      vertex 9.54594 -7.72462 10
      vertex 7.07107 -5.24975 0.866025
    endloop
  endfacet
  facet normal 0.707108 0.707106 -5.68674e-07
    outer loop
      vertex 7.07107 -5.24975 0.866025
      vertex 9.54594 -7.72462 10
      vertex 7.19066 -5.36934 0.743144
    endloop
  endfacet
  facet normal 0.70711 0.707104 -1.20096e-06
    outer loop
      vertex 7.40917 -5.58785 0.207911
      vertex 9.54594 -7.72462 10
      vertex 7.42462 -5.6033 0
    endloop
  endfacet
  facet normal 0.707107 0.707107 1.76602e-08
    outer loop
      vertex 7.36349 -5.54217 0.406736
      vertex 9.54594 -7.72462 10
      vertex 7.40917 -5.58785 0.207911
    endloop
  endfacet
  facet normal 0.707105 0.707108 6.88999e-07
    outer loop
      vertex 7.28958 -5.46826 0.587785
      vertex 9.54594 -7.72462 10
      vertex 7.36349 -5.54217 0.406736
    endloop
  endfacet
  facet normal 0.707107 0.707107 0
    outer loop
      vertex 7.19066 -5.36934 0.743144
      vertex 9.54594 -7.72462 10
      vertex 7.28958 -5.46826 0.587785
    endloop
  endfacet
  facet normal 0.707107 0.707107 2.70471e-09
    outer loop
      vertex 6.02586 -4.20454 -0.207912
      vertex 2.12132 -0.299999 -10
      vertex 6.01041 -4.18909 0
    endloop
  endfacet
  facet normal 0.707105 0.707108 1.0822e-06
    outer loop
      vertex 6.07154 -4.25022 -0.406737
      vertex 2.12132 -0.299999 -10
      vertex 6.02586 -4.20454 -0.207912
    endloop
  endfacet
  facet normal 0.707107 0.707107 -8.74902e-09
    outer loop
      vertex 6.14545 -4.32413 -0.587786
      vertex 2.12132 -0.299999 -10
      vertex 6.07154 -4.25022 -0.406737
    endloop
  endfacet
  facet normal 0.707107 0.707107 -1.07157e-08
    outer loop
      vertex 6.24437 -4.42305 -0.743145
      vertex 2.12132 -0.299999 -10
      vertex 6.14545 -4.32413 -0.587786
    endloop
  endfacet
  facet normal 0.707107 0.707107 -1.24942e-08
    outer loop
      vertex 6.36396 -4.54264 -0.866026
      vertex 2.12132 -0.299999 -10
      vertex 6.24437 -4.42305 -0.743145
    endloop
  endfacet
  facet normal 0.707107 0.707107 -1.42806e-08
    outer loop
      vertex 6.49901 -4.67769 -0.951057
      vertex 2.12132 -0.299999 -10
      vertex 6.36396 -4.54264 -0.866026
    endloop
  endfacet
  facet normal 0.707107 0.707107 -1.62653e-08
    outer loop
      vertex 6.6436 -4.82228 -0.994522
      vertex 2.12132 -0.299999 -10
      vertex 6.49901 -4.67769 -0.951057
    endloop
  endfacet
  facet normal 0.707107 0.707107 -3.74411e-08
    outer loop
      vertex 9.54594 -7.72462 -10
      vertex 6.6436 -4.82228 -0.994522
      vertex 6.79143 -4.97011 -0.994522
    endloop
  endfacet
  facet normal 0.707108 0.707106 6.18902e-07
    outer loop
      vertex 9.54594 -7.72462 -10
      vertex 6.79143 -4.97011 -0.994522
      vertex 6.93602 -5.1147 -0.951057
    endloop
  endfacet
  facet normal 0.707106 0.707108 -6.0944e-07
    outer loop
      vertex 9.54594 -7.72462 -10
      vertex 6.93602 -5.1147 -0.951057
      vertex 7.07107 -5.24975 -0.866026
    endloop
  endfacet
  facet normal 0.707108 0.707106 5.68674e-07
    outer loop
      vertex 9.54594 -7.72462 -10
      vertex 7.07107 -5.24975 -0.866026
      vertex 7.19066 -5.36934 -0.743145
    endloop
  endfacet
  facet normal 0.707107 0.707107 0
    outer loop
      vertex 9.54594 -7.72462 -10
      vertex 7.19066 -5.36934 -0.743145
      vertex 7.28958 -5.46826 -0.587786
    endloop
  endfacet
  facet normal 0.707107 0.707107 -0
    outer loop
      vertex 9.54594 -7.72462 -10
      vertex 7.42462 -5.6033 0
      vertex 9.54594 -7.72462 10
    endloop
  endfacet
  facet normal 0.707107 0.707107 -3.01231e-08
    outer loop
      vertex 6.6436 -4.82228 -0.994522
      vertex 9.54594 -7.72462 -10
      vertex 2.12132 -0.299999 -10
    endloop
  endfacet
  facet normal 0.707105 0.707108 -6.88999e-07
    outer loop
      vertex 7.36349 -5.54217 -0.406737
      vertex 9.54594 -7.72462 -10
      vertex 7.28958 -5.46826 -0.587786
    endloop
  endfacet
  facet normal 0.707107 0.707107 -1.76602e-08
    outer loop
      vertex 7.40917 -5.58785 -0.207912
      vertex 9.54594 -7.72462 -10
      vertex 7.36349 -5.54217 -0.406737
    endloop
  endfacet
  facet normal 0.70711 0.707104 1.20096e-06
    outer loop
      vertex 7.42462 -5.6033 0
      vertex 9.54594 -7.72462 -10
      vertex 7.40917 -5.58785 -0.207912
    endloop
  endfacet
  facet normal -0.707107 -0.707107 0
    outer loop
      vertex 0 -0.3 -10
      vertex 4.94975 -5.24975 0
      vertex 0 -0.3 10
    endloop
  endfacet
  facet normal -0.707107 -0.707107 2.75099e-09
    outer loop
      vertex 0 -0.3 -10
      vertex 4.9652 -5.2652 -0.207912
      vertex 4.94975 -5.24975 0
    endloop
  endfacet
  facet normal -0.707108 -0.707106 1.17375e-06
    outer loop
      vertex 0 -0.3 -10
      vertex 5.01088 -5.31088 -0.406737
      vertex 4.9652 -5.2652 -0.207912
    endloop
  endfacet
  facet normal -0.707107 -0.707107 -5.78215e-09
    outer loop
      vertex 0 -0.3 -10
      vertex 5.08479 -5.38479 -0.587786
      vertex 5.01088 -5.31088 -0.406737
    endloop
  endfacet
  facet normal -0.707107 -0.707107 -7.26727e-09
    outer loop
      vertex 0 -0.3 -10
      vertex 5.18371 -5.48371 -0.743145
      vertex 5.08479 -5.38479 -0.587786
    endloop
  endfacet
  facet normal -0.707107 -0.707107 -8.67039e-09
    outer loop
      vertex 0 -0.3 -10
      vertex 5.3033 -5.6033 -0.866026
      vertex 5.18371 -5.48371 -0.743145
    endloop
  endfacet
  facet normal -0.707107 -0.707107 -1.0137e-08
    outer loop
      vertex 0 -0.3 -10
      vertex 5.43835 -5.73835 -0.951057
      vertex 5.3033 -5.6033 -0.866026
    endloop
  endfacet
  facet normal -0.707107 -0.707107 -1.18349e-08
    outer loop
      vertex 0 -0.3 -10
      vertex 5.58294 -5.88294 -0.994522
      vertex 5.43835 -5.73835 -0.951057
    endloop
  endfacet
  facet normal -0.707107 -0.707107 -4.80244e-09
    outer loop
      vertex 8.48528 -8.78528 -10
      vertex 5.58294 -5.88294 -0.994522
      vertex 0 -0.3 -10
    endloop
  endfacet
  facet normal -0.707107 -0.707107 0
    outer loop
      vertex 5.58294 -5.88294 -0.994522
      vertex 8.48528 -8.78528 -10
      vertex 5.73077 -6.03077 -0.994522
    endloop
  endfacet
  facet normal -0.707106 -0.707108 6.53191e-07
    outer loop
      vertex 5.73077 -6.03077 -0.994522
      vertex 8.48528 -8.78528 -10
      vertex 5.87536 -6.17536 -0.951057
    endloop
  endfacet
  facet normal -0.707108 -0.707106 -5.77906e-07
    outer loop
      vertex 5.87536 -6.17536 -0.951057
      vertex 8.48528 -8.78528 -10
      vertex 6.01041 -6.31041 -0.866026
    endloop
  endfacet
  facet normal -0.707104 -0.70711 1.20971e-06
    outer loop
      vertex 6.34851 -6.64851 -0.207912
      vertex 8.48528 -8.78528 -10
      vertex 6.36396 -6.66396 0
    endloop
  endfacet
  facet normal -0.707107 -0.707107 0
    outer loop
      vertex 6.30283 -6.60283 -0.406737
      vertex 8.48528 -8.78528 -10
      vertex 6.34851 -6.64851 -0.207912
    endloop
  endfacet
  facet normal -0.707108 -0.707105 -6.66429e-07
    outer loop
      vertex 6.22892 -6.52891 -0.587786
      vertex 8.48528 -8.78528 -10
      vertex 6.30283 -6.60283 -0.406737
    endloop
  endfacet
  facet normal -0.707107 -0.707107 2.60243e-08
    outer loop
      vertex 6.13 -6.43 -0.743145
      vertex 8.48528 -8.78528 -10
      vertex 6.22892 -6.52891 -0.587786
    endloop
  endfacet
  facet normal -0.707106 -0.707108 5.9755e-07
    outer loop
      vertex 6.01041 -6.31041 -0.866026
      vertex 8.48528 -8.78528 -10
      vertex 6.13 -6.43 -0.743145
    endloop
  endfacet
  facet normal -0.707107 -0.707107 -2.751e-09
    outer loop
      vertex 4.9652 -5.2652 0.207911
      vertex 0 -0.3 10
      vertex 4.94975 -5.24975 0
    endloop
  endfacet
  facet normal -0.707108 -0.707106 -1.17375e-06
    outer loop
      vertex 5.01088 -5.31088 0.406736
      vertex 0 -0.3 10
      vertex 4.9652 -5.2652 0.207911
    endloop
  endfacet
  facet normal -0.707107 -0.707107 5.78215e-09
    outer loop
      vertex 5.08479 -5.38479 0.587785
      vertex 0 -0.3 10
      vertex 5.01088 -5.31088 0.406736
    endloop
  endfacet
  facet normal -0.707107 -0.707107 7.26727e-09
    outer loop
      vertex 5.18371 -5.48371 0.743144
      vertex 0 -0.3 10
      vertex 5.08479 -5.38479 0.587785
    endloop
  endfacet
  facet normal -0.707107 -0.707107 8.67039e-09
    outer loop
      vertex 5.3033 -5.6033 0.866025
      vertex 0 -0.3 10
      vertex 5.18371 -5.48371 0.743144
    endloop
  endfacet
  facet normal -0.707107 -0.707107 1.0137e-08
    outer loop
      vertex 5.43835 -5.73835 0.951056
      vertex 0 -0.3 10
      vertex 5.3033 -5.6033 0.866025
    endloop
  endfacet
  facet normal -0.707107 -0.707107 1.18349e-08
    outer loop
      vertex 5.58294 -5.88294 0.994521
      vertex 0 -0.3 10
      vertex 5.43835 -5.73835 0.951056
    endloop
  endfacet
  facet normal -0.707107 -0.707107 0
    outer loop
      vertex 8.48528 -8.78528 10
      vertex 5.58294 -5.88294 0.994521
      vertex 5.73077 -6.03077 0.994521
    endloop
  endfacet
  facet normal -0.707106 -0.707108 -6.53191e-07
    outer loop
      vertex 8.48528 -8.78528 10
      vertex 5.73077 -6.03077 0.994521
      vertex 5.87536 -6.17536 0.951056
    endloop
  endfacet
  facet normal -0.707108 -0.707106 5.77906e-07
    outer loop
      vertex 8.48528 -8.78528 10
      vertex 5.87536 -6.17536 0.951056
      vertex 6.01041 -6.31041 0.866025
    endloop
  endfacet
  facet normal -0.707106 -0.707108 -5.9755e-07
    outer loop
      vertex 8.48528 -8.78528 10
      vertex 6.01041 -6.31041 0.866025
      vertex 6.13 -6.43 0.743144
    endloop
  endfacet
  facet normal -0.707107 -0.707107 -0
    outer loop
      vertex 8.48528 -8.78528 10
      vertex 6.36396 -6.66396 0
      vertex 8.48528 -8.78528 -10
    endloop
  endfacet
  facet normal -0.707107 -0.707107 4.80244e-09
    outer loop
      vertex 5.58294 -5.88294 0.994521
      vertex 8.48528 -8.78528 10
      vertex 0 -0.3 10
    endloop
  endfacet
  facet normal -0.707107 -0.707107 -2.60243e-08
    outer loop
      vertex 6.22892 -6.52891 0.587785
      vertex 8.48528 -8.78528 10
      vertex 6.13 -6.43 0.743144
    endloop
  endfacet
  facet normal -0.707108 -0.707105 6.66429e-07
    outer loop
      vertex 6.30283 -6.60283 0.406736
      vertex 8.48528 -8.78528 10
      vertex 6.22892 -6.52891 0.587785
    endloop
  endfacet
  facet normal -0.707107 -0.707107 0
    outer loop
      vertex 6.34851 -6.64851 0.207911
      vertex 8.48528 -8.78528 10
      vertex 6.30283 -6.60283 0.406736
    endloop
  endfacet
  facet normal -0.707104 -0.70711 -1.20971e-06
    outer loop
      vertex 6.36396 -6.66396 0
      vertex 8.48528 -8.78528 10
      vertex 6.34851 -6.64851 0.207911
    endloop
  endfacet
  facet normal -0.703233 0.703233 -0.10453
    outer loop
      vertex 7.42462 -5.6033 0
      vertex 6.34851 -6.64851 0.207911
      vertex 7.40917 -5.58785 0.207911
    endloop
  endfacet
  facet normal -0.703233 0.703233 -0.10453
    outer loop
      vertex 6.34851 -6.64851 0.207911
      vertex 7.42462 -5.6033 0
      vertex 6.36396 -6.66396 0
    endloop
  endfacet
  facet normal -0.672498 0.672498 -0.309019
    outer loop
      vertex 7.40917 -5.58785 0.207911
      vertex 6.30283 -6.60283 0.406736
      vertex 7.36349 -5.54217 0.406736
    endloop
  endfacet
  facet normal -0.672498 0.672498 -0.309019
    outer loop
      vertex 6.30283 -6.60283 0.406736
      vertex 7.40917 -5.58785 0.207911
      vertex 6.34851 -6.64851 0.207911
    endloop
  endfacet
  facet normal 0.147014 -0.147014 -0.978148
    outer loop
      vertex 5.58294 -5.88294 0.994521
      vertex 6.49901 -4.67769 0.951056
      vertex 6.6436 -4.82228 0.994521
    endloop
  endfacet
  facet normal 0.147014 -0.147014 -0.978148
    outer loop
      vertex 6.49901 -4.67769 0.951056
      vertex 5.58294 -5.88294 0.994521
      vertex 5.43835 -5.73835 0.951056
    endloop
  endfacet
  facet normal -0.415628 0.415628 -0.809016
    outer loop
      vertex 6.13 -6.43 0.743144
      vertex 7.07107 -5.24975 0.866025
      vertex 7.19066 -5.36934 0.743144
    endloop
  endfacet
  facet normal -0.415628 0.415628 -0.809016
    outer loop
      vertex 7.07107 -5.24975 0.866025
      vertex 6.13 -6.43 0.743144
      vertex 6.01041 -6.31041 0.866025
    endloop
  endfacet
  facet normal 0.415626 -0.415626 -0.809018
    outer loop
      vertex 5.3033 -5.6033 0.866025
      vertex 6.24437 -4.42305 0.743144
      vertex 6.36396 -4.54264 0.866025
    endloop
  endfacet
  facet normal 0.415626 -0.415626 -0.809018
    outer loop
      vertex 6.24437 -4.42305 0.743144
      vertex 5.3033 -5.6033 0.866025
      vertex 5.18371 -5.48371 0.743144
    endloop
  endfacet
  facet normal -0.672498 0.672498 0.309019
    outer loop
      vertex 6.30283 -6.60283 -0.406737
      vertex 7.40917 -5.58785 -0.207912
      vertex 7.36349 -5.54217 -0.406737
    endloop
  endfacet
  facet normal -0.672498 0.672498 0.309019
    outer loop
      vertex 7.40917 -5.58785 -0.207912
      vertex 6.30283 -6.60283 -0.406737
      vertex 6.34851 -6.64851 -0.207912
    endloop
  endfacet
  facet normal -0.612372 0.612372 -0.500001
    outer loop
      vertex 7.36349 -5.54217 0.406736
      vertex 6.22892 -6.52891 0.587785
      vertex 7.28958 -5.46826 0.587785
    endloop
  endfacet
  facet normal -0.612372 0.612372 -0.500001
    outer loop
      vertex 6.22892 -6.52891 0.587785
      vertex 7.36349 -5.54217 0.406736
      vertex 6.30283 -6.60283 0.406736
    endloop
  endfacet
  facet normal -0.147014 0.147014 -0.978148
    outer loop
      vertex 5.87536 -6.17536 0.951056
      vertex 6.79143 -4.97011 0.994521
      vertex 6.93602 -5.1147 0.951056
    endloop
  endfacet
  facet normal -0.147014 0.147014 -0.978148
    outer loop
      vertex 6.79143 -4.97011 0.994521
      vertex 5.87536 -6.17536 0.951056
      vertex 5.73077 -6.03077 0.994521
    endloop
  endfacet
  facet normal -0.287607 0.287607 -0.913545
    outer loop
      vertex 6.01041 -6.31041 0.866025
      vertex 6.93602 -5.1147 0.951056
      vertex 7.07107 -5.24975 0.866025
    endloop
  endfacet
  facet normal -0.287607 0.287607 -0.913545
    outer loop
      vertex 6.93602 -5.1147 0.951056
      vertex 6.01041 -6.31041 0.866025
      vertex 5.87536 -6.17536 0.951056
    endloop
  endfacet
  facet normal 0.672498 -0.672498 -0.309021
    outer loop
      vertex 6.07154 -4.25022 0.406736
      vertex 4.9652 -5.2652 0.207911
      vertex 6.02586 -4.20454 0.207911
    endloop
  endfacet
  facet normal 0.672498 -0.672498 -0.309021
    outer loop
      vertex 4.9652 -5.2652 0.207911
      vertex 6.07154 -4.25022 0.406736
      vertex 5.01088 -5.31088 0.406736
    endloop
  endfacet
  facet normal 0.287608 -0.287608 -0.913544
    outer loop
      vertex 5.43835 -5.73835 0.951056
      vertex 6.36396 -4.54264 0.866025
      vertex 6.49901 -4.67769 0.951056
    endloop
  endfacet
  facet normal 0.287608 -0.287608 -0.913544
    outer loop
      vertex 6.36396 -4.54264 0.866025
      vertex 5.43835 -5.73835 0.951056
      vertex 5.3033 -5.6033 0.866025
    endloop
  endfacet
  facet normal -0.703233 0.703233 0.104529
    outer loop
      vertex 6.34851 -6.64851 -0.207912
      vertex 7.42462 -5.6033 0
      vertex 7.40917 -5.58785 -0.207912
    endloop
  endfacet
  facet normal -0.703233 0.703233 0.104529
    outer loop
      vertex 7.42462 -5.6033 0
      vertex 6.34851 -6.64851 -0.207912
      vertex 6.36396 -6.66396 0
    endloop
  endfacet
  facet normal -0.147014 0.147014 0.978148
    outer loop
      vertex 6.79143 -4.97011 -0.994522
      vertex 5.87536 -6.17536 -0.951057
      vertex 6.93602 -5.1147 -0.951057
    endloop
  endfacet
  facet normal -0.147014 0.147014 0.978148
    outer loop
      vertex 5.87536 -6.17536 -0.951057
      vertex 6.79143 -4.97011 -0.994522
      vertex 5.73077 -6.03077 -0.994522
    endloop
  endfacet
  facet normal -0.415628 0.415628 0.809016
    outer loop
      vertex 7.07107 -5.24975 -0.866026
      vertex 6.13 -6.43 -0.743145
      vertex 7.19066 -5.36934 -0.743145
    endloop
  endfacet
  facet normal -0.415628 0.415628 0.809016
    outer loop
      vertex 6.13 -6.43 -0.743145
      vertex 7.07107 -5.24975 -0.866026
      vertex 6.01041 -6.31041 -0.866026
    endloop
  endfacet
  facet normal -0.525483 0.525483 -0.66913
    outer loop
      vertex 6.22892 -6.52891 0.587785
      vertex 7.19066 -5.36934 0.743144
      vertex 7.28958 -5.46826 0.587785
    endloop
  endfacet
  facet normal -0.525483 0.525483 -0.66913
    outer loop
      vertex 7.19066 -5.36934 0.743144
      vertex 6.22892 -6.52891 0.587785
      vertex 6.13 -6.43 0.743144
    endloop
  endfacet
  facet normal 0 0 -1
    outer loop
      vertex 5.73077 -6.03077 0.994521
      vertex 6.6436 -4.82228 0.994521
      vertex 6.79143 -4.97011 0.994521
    endloop
  endfacet
  facet normal 0 0 -1
    outer loop
      vertex 6.6436 -4.82228 0.994521
      vertex 5.73077 -6.03077 0.994521
      vertex 5.58294 -5.88294 0.994521
    endloop
  endfacet
  facet normal 0.703233 -0.703233 -0.104525
    outer loop
      vertex 6.01041 -4.18909 0
      vertex 4.9652 -5.2652 0.207911
      vertex 4.94975 -5.24975 0
    endloop
  endfacet
  facet normal 0.703233 -0.703233 -0.104525
    outer loop
      vertex 4.9652 -5.2652 0.207911
      vertex 6.01041 -4.18909 0
      vertex 6.02586 -4.20454 0.207911
    endloop
  endfacet
  facet normal 0.703233 -0.703233 0.104524
    outer loop
      vertex 4.9652 -5.2652 -0.207912
      vertex 6.01041 -4.18909 0
      vertex 4.94975 -5.24975 0
    endloop
  endfacet
  facet normal 0.703233 -0.703233 0.104524
    outer loop
      vertex 6.01041 -4.18909 0
      vertex 4.9652 -5.2652 -0.207912
      vertex 6.02586 -4.20454 -0.207912
    endloop
  endfacet
  facet normal 0.525483 -0.525483 -0.66913
    outer loop
      vertex 5.18371 -5.48371 0.743144
      vertex 6.14545 -4.32413 0.587785
      vertex 6.24437 -4.42305 0.743144
    endloop
  endfacet
  facet normal 0.525483 -0.525483 -0.66913
    outer loop
      vertex 6.14545 -4.32413 0.587785
      vertex 5.18371 -5.48371 0.743144
      vertex 5.08479 -5.38479 0.587785
    endloop
  endfacet
  facet normal 0.612373 -0.612373 -0.5
    outer loop
      vertex 6.14545 -4.32413 0.587785
      vertex 5.01088 -5.31088 0.406736
      vertex 6.07154 -4.25022 0.406736
    endloop
  endfacet
  facet normal 0.612373 -0.612373 -0.5
    outer loop
      vertex 5.01088 -5.31088 0.406736
      vertex 6.14545 -4.32413 0.587785
      vertex 5.08479 -5.38479 0.587785
    endloop
  endfacet
  facet normal -0.525483 0.525483 0.66913
    outer loop
      vertex 7.19066 -5.36934 -0.743145
      vertex 6.22892 -6.52891 -0.587786
      vertex 7.28958 -5.46826 -0.587786
    endloop
  endfacet
  facet normal -0.525483 0.525483 0.66913
    outer loop
      vertex 6.22892 -6.52891 -0.587786
      vertex 7.19066 -5.36934 -0.743145
      vertex 6.13 -6.43 -0.743145
    endloop
  endfacet
  facet normal 0.287608 -0.287608 0.913544
    outer loop
      vertex 6.36396 -4.54264 -0.866026
      vertex 5.43835 -5.73835 -0.951057
      vertex 6.49901 -4.67769 -0.951057
    endloop
  endfacet
  facet normal 0.287608 -0.287608 0.913544
    outer loop
      vertex 5.43835 -5.73835 -0.951057
      vertex 6.36396 -4.54264 -0.866026
      vertex 5.3033 -5.6033 -0.866026
    endloop
  endfacet
  facet normal 0.525483 -0.525483 0.66913
    outer loop
      vertex 6.14545 -4.32413 -0.587786
      vertex 5.18371 -5.48371 -0.743145
      vertex 6.24437 -4.42305 -0.743145
    endloop
  endfacet
  facet normal 0.525483 -0.525483 0.66913
    outer loop
      vertex 5.18371 -5.48371 -0.743145
      vertex 6.14545 -4.32413 -0.587786
      vertex 5.08479 -5.38479 -0.587786
    endloop
  endfacet
  facet normal 0.612373 -0.612373 0.5
    outer loop
      vertex 5.01088 -5.31088 -0.406737
      vertex 6.14545 -4.32413 -0.587786
      vertex 6.07154 -4.25022 -0.406737
    endloop
  endfacet
  facet normal 0.612373 -0.612373 0.5
    outer loop
      vertex 6.14545 -4.32413 -0.587786
      vertex 5.01088 -5.31088 -0.406737
      vertex 5.08479 -5.38479 -0.587786
    endloop
  endfacet
  facet normal 0.415626 -0.415626 0.809018
    outer loop
      vertex 6.24437 -4.42305 -0.743145
      vertex 5.3033 -5.6033 -0.866026
      vertex 6.36396 -4.54264 -0.866026
    endloop
  endfacet
  facet normal 0.415626 -0.415626 0.809018
    outer loop
      vertex 5.3033 -5.6033 -0.866026
      vertex 6.24437 -4.42305 -0.743145
      vertex 5.18371 -5.48371 -0.743145
    endloop
  endfacet
  facet normal 0.672498 -0.672498 0.309021
    outer loop
      vertex 4.9652 -5.2652 -0.207912
      vertex 6.07154 -4.25022 -0.406737
      vertex 6.02586 -4.20454 -0.207912
    endloop
  endfacet
  facet normal 0.672498 -0.672498 0.309021
    outer loop
      vertex 6.07154 -4.25022 -0.406737
      vertex 4.9652 -5.2652 -0.207912
      vertex 5.01088 -5.31088 -0.406737
    endloop
  endfacet
  facet normal -0.287607 0.287607 0.913545
    outer loop
      vertex 6.93602 -5.1147 -0.951057
      vertex 6.01041 -6.31041 -0.866026
      vertex 7.07107 -5.24975 -0.866026
    endloop
  endfacet
  facet normal -0.287607 0.287607 0.913545
    outer loop
      vertex 6.01041 -6.31041 -0.866026
      vertex 6.93602 -5.1147 -0.951057
      vertex 5.87536 -6.17536 -0.951057
    endloop
  endfacet
  facet normal -0.612372 0.612372 0.500001
    outer loop
      vertex 6.22892 -6.52891 -0.587786
      vertex 7.36349 -5.54217 -0.406737
      vertex 7.28958 -5.46826 -0.587786
    endloop
  endfacet
  facet normal -0.612372 0.612372 0.500001
    outer loop
      vertex 7.36349 -5.54217 -0.406737
      vertex 6.22892 -6.52891 -0.587786
      vertex 6.30283 -6.60283 -0.406737
    endloop
  endfacet
  facet normal 0.147014 -0.147014 0.978148
    outer loop
      vertex 6.49901 -4.67769 -0.951057
      vertex 5.58294 -5.88294 -0.994522
      vertex 6.6436 -4.82228 -0.994522
    endloop
  endfacet
  facet normal 0.147014 -0.147014 0.978148
    outer loop
      vertex 5.58294 -5.88294 -0.994522
      vertex 6.49901 -4.67769 -0.951057
      vertex 5.43835 -5.73835 -0.951057
    endloop
  endfacet
  facet normal 0 0 1
    outer loop
      vertex 6.6436 -4.82228 -0.994522
      vertex 5.73077 -6.03077 -0.994522
      vertex 6.79143 -4.97011 -0.994522
    endloop
  endfacet
  facet normal 0 -0 1
    outer loop
      vertex 5.73077 -6.03077 -0.994522
      vertex 6.6436 -4.82228 -0.994522
      vertex 5.58294 -5.88294 -0.994522
    endloop
  endfacet
  facet normal 0.712567 0.701604 0
    outer loop
      vertex 0 -0.3 10
      vertex -7.62939e-07 -0.299999 -10
      vertex -7.62939e-07 -0.299999 10
    endloop
  endfacet
  facet normal 0.712567 0.701604 0
    outer loop
      vertex -7.62939e-07 -0.299999 -10
      vertex 0 -0.3 10
      vertex 0 -0.3 -10
    endloop
  endfacet
  facet normal -0.707107 -0.707107 0
    outer loop
      vertex -9.54594 -7.72462 -10
      vertex -8.48528 -8.78528 10
      vertex -9.54594 -7.72462 10
    endloop
  endfacet
  facet normal -0.707107 -0.707107 -0
    outer loop
      vertex -8.48528 -8.78528 10
      vertex -9.54594 -7.72462 -10
      vertex -8.48528 -8.78528 -10
    endloop
  endfacet
  facet normal -0.707107 0.707107 0
    outer loop
      vertex -2.12132 -0.299999 -10
      vertex -6.01041 -4.18909 0
      vertex -2.12132 -0.299999 10
    endloop
  endfacet
  facet normal -0.707107 0.707107 2.70471e-09
    outer loop
      vertex -2.12132 -0.299999 -10
      vertex -6.02586 -4.20454 -0.207912
      vertex -6.01041 -4.18909 0
    endloop
  endfacet
  facet normal -0.707105 0.707108 1.0822e-06
    outer loop
      vertex -2.12132 -0.299999 -10
      vertex -6.07154 -4.25022 -0.406737
      vertex -6.02586 -4.20454 -0.207912
    endloop
  endfacet
  facet normal -0.707107 0.707107 -8.74902e-09
    outer loop
      vertex -2.12132 -0.299999 -10
      vertex -6.14545 -4.32413 -0.587786
      vertex -6.07154 -4.25022 -0.406737
    endloop
  endfacet
  facet normal -0.707107 0.707107 -1.07157e-08
    outer loop
      vertex -2.12132 -0.299999 -10
      vertex -6.24437 -4.42305 -0.743145
      vertex -6.14545 -4.32413 -0.587786
    endloop
  endfacet
  facet normal -0.707107 0.707107 -1.24942e-08
    outer loop
      vertex -2.12132 -0.299999 -10
      vertex -6.36396 -4.54264 -0.866026
      vertex -6.24437 -4.42305 -0.743145
    endloop
  endfacet
  facet normal -0.707107 0.707107 -1.42806e-08
    outer loop
      vertex -2.12132 -0.299999 -10
      vertex -6.49901 -4.67769 -0.951057
      vertex -6.36396 -4.54264 -0.866026
    endloop
  endfacet
  facet normal -0.707107 0.707107 -1.62653e-08
    outer loop
      vertex -2.12132 -0.299999 -10
      vertex -6.6436 -4.82228 -0.994522
      vertex -6.49901 -4.67769 -0.951057
    endloop
  endfacet
  facet normal -0.707107 0.707107 -3.01231e-08
    outer loop
      vertex -9.54594 -7.72462 -10
      vertex -6.6436 -4.82228 -0.994522
      vertex -2.12132 -0.299999 -10
    endloop
  endfacet
  facet normal -0.707107 0.707107 -3.74411e-08
    outer loop
      vertex -6.6436 -4.82228 -0.994522
      vertex -9.54594 -7.72462 -10
      vertex -6.79143 -4.97011 -0.994522
    endloop
  endfacet
  facet normal -0.707108 0.707106 6.18902e-07
    outer loop
      vertex -6.79143 -4.97011 -0.994522
      vertex -9.54594 -7.72462 -10
      vertex -6.93602 -5.1147 -0.951057
    endloop
  endfacet
  facet normal -0.707106 0.707108 -6.0944e-07
    outer loop
      vertex -6.93602 -5.1147 -0.951057
      vertex -9.54594 -7.72462 -10
      vertex -7.07107 -5.24975 -0.866026
    endloop
  endfacet
  facet normal -0.707108 0.707106 5.68674e-07
    outer loop
      vertex -7.07107 -5.24975 -0.866026
      vertex -9.54594 -7.72462 -10
      vertex -7.19066 -5.36934 -0.743145
    endloop
  endfacet
  facet normal -0.70711 0.707104 1.20096e-06
    outer loop
      vertex -7.40917 -5.58785 -0.207912
      vertex -9.54594 -7.72462 -10
      vertex -7.42462 -5.6033 0
    endloop
  endfacet
  facet normal -0.707107 0.707107 -1.76602e-08
    outer loop
      vertex -7.36349 -5.54217 -0.406737
      vertex -9.54594 -7.72462 -10
      vertex -7.40917 -5.58785 -0.207912
    endloop
  endfacet
  facet normal -0.707105 0.707108 -6.88999e-07
    outer loop
      vertex -7.28958 -5.46826 -0.587786
      vertex -9.54594 -7.72462 -10
      vertex -7.36349 -5.54217 -0.406737
    endloop
  endfacet
  facet normal -0.707107 0.707107 0
    outer loop
      vertex -7.19066 -5.36934 -0.743145
      vertex -9.54594 -7.72462 -10
      vertex -7.28958 -5.46826 -0.587786
    endloop
  endfacet
  facet normal -0.707107 0.707107 -2.70472e-09
    outer loop
      vertex -6.02586 -4.20454 0.207911
      vertex -2.12132 -0.299999 10
      vertex -6.01041 -4.18909 0
    endloop
  endfacet
  facet normal -0.707105 0.707108 -1.0822e-06
    outer loop
      vertex -6.07154 -4.25022 0.406736
      vertex -2.12132 -0.299999 10
      vertex -6.02586 -4.20454 0.207911
    endloop
  endfacet
  facet normal -0.707107 0.707107 8.74902e-09
    outer loop
      vertex -6.14545 -4.32413 0.587785
      vertex -2.12132 -0.299999 10
      vertex -6.07154 -4.25022 0.406736
    endloop
  endfacet
  facet normal -0.707107 0.707107 1.07157e-08
    outer loop
      vertex -6.24437 -4.42305 0.743144
      vertex -2.12132 -0.299999 10
      vertex -6.14545 -4.32413 0.587785
    endloop
  endfacet
  facet normal -0.707107 0.707107 1.24942e-08
    outer loop
      vertex -6.36396 -4.54264 0.866025
      vertex -2.12132 -0.299999 10
      vertex -6.24437 -4.42305 0.743144
    endloop
  endfacet
  facet normal -0.707107 0.707107 1.42806e-08
    outer loop
      vertex -6.49901 -4.67769 0.951056
      vertex -2.12132 -0.299999 10
      vertex -6.36396 -4.54264 0.866025
    endloop
  endfacet
  facet normal -0.707107 0.707107 1.62653e-08
    outer loop
      vertex -6.6436 -4.82228 0.994521
      vertex -2.12132 -0.299999 10
      vertex -6.49901 -4.67769 0.951056
    endloop
  endfacet
  facet normal -0.707107 0.707107 3.74411e-08
    outer loop
      vertex -9.54594 -7.72462 10
      vertex -6.6436 -4.82228 0.994521
      vertex -6.79143 -4.97011 0.994521
    endloop
  endfacet
  facet normal -0.707108 0.707106 -6.18902e-07
    outer loop
      vertex -9.54594 -7.72462 10
      vertex -6.79143 -4.97011 0.994521
      vertex -6.93602 -5.1147 0.951056
    endloop
  endfacet
  facet normal -0.707106 0.707108 6.0944e-07
    outer loop
      vertex -9.54594 -7.72462 10
      vertex -6.93602 -5.1147 0.951056
      vertex -7.07107 -5.24975 0.866025
    endloop
  endfacet
  facet normal -0.707108 0.707106 -5.68674e-07
    outer loop
      vertex -9.54594 -7.72462 10
      vertex -7.07107 -5.24975 0.866025
      vertex -7.19066 -5.36934 0.743144
    endloop
  endfacet
  facet normal -0.707107 0.707107 0
    outer loop
      vertex -9.54594 -7.72462 10
      vertex -7.19066 -5.36934 0.743144
      vertex -7.28958 -5.46826 0.587785
    endloop
  endfacet
  facet normal -0.707107 0.707107 0
    outer loop
      vertex -9.54594 -7.72462 10
      vertex -7.42462 -5.6033 0
      vertex -9.54594 -7.72462 -10
    endloop
  endfacet
  facet normal -0.707107 0.707107 3.01231e-08
    outer loop
      vertex -6.6436 -4.82228 0.994521
      vertex -9.54594 -7.72462 10
      vertex -2.12132 -0.299999 10
    endloop
  endfacet
  facet normal -0.707105 0.707108 6.88999e-07
    outer loop
      vertex -7.36349 -5.54217 0.406736
      vertex -9.54594 -7.72462 10
      vertex -7.28958 -5.46826 0.587785
    endloop
  endfacet
  facet normal -0.707107 0.707107 1.76602e-08
    outer loop
      vertex -7.40917 -5.58785 0.207911
      vertex -9.54594 -7.72462 10
      vertex -7.36349 -5.54217 0.406736
    endloop
  endfacet
  facet normal -0.70711 0.707104 -1.20096e-06
    outer loop
      vertex -7.42462 -5.6033 0
      vertex -9.54594 -7.72462 10
      vertex -7.40917 -5.58785 0.207911
    endloop
  endfacet
  facet normal 0.707107 -0.707107 0
    outer loop
      vertex 0 -0.3 10
      vertex -4.94975 -5.24975 0
      vertex 0 -0.3 -10
    endloop
  endfacet
  facet normal 0.707107 -0.707107 -2.751e-09
    outer loop
      vertex 0 -0.3 10
      vertex -4.9652 -5.2652 0.207911
      vertex -4.94975 -5.24975 0
    endloop
  endfacet
  facet normal 0.707108 -0.707106 -1.17375e-06
    outer loop
      vertex 0 -0.3 10
      vertex -5.01088 -5.31088 0.406736
      vertex -4.9652 -5.2652 0.207911
    endloop
  endfacet
  facet normal 0.707107 -0.707107 5.78215e-09
    outer loop
      vertex 0 -0.3 10
      vertex -5.08479 -5.38479 0.587785
      vertex -5.01088 -5.31088 0.406736
    endloop
  endfacet
  facet normal 0.707107 -0.707107 7.26727e-09
    outer loop
      vertex 0 -0.3 10
      vertex -5.18371 -5.48371 0.743144
      vertex -5.08479 -5.38479 0.587785
    endloop
  endfacet
  facet normal 0.707107 -0.707107 8.67039e-09
    outer loop
      vertex 0 -0.3 10
      vertex -5.3033 -5.6033 0.866025
      vertex -5.18371 -5.48371 0.743144
    endloop
  endfacet
  facet normal 0.707107 -0.707107 1.0137e-08
    outer loop
      vertex 0 -0.3 10
      vertex -5.43835 -5.73835 0.951056
      vertex -5.3033 -5.6033 0.866025
    endloop
  endfacet
  facet normal 0.707107 -0.707107 1.18349e-08
    outer loop
      vertex 0 -0.3 10
      vertex -5.58294 -5.88294 0.994521
      vertex -5.43835 -5.73835 0.951056
    endloop
  endfacet
  facet normal 0.707107 -0.707107 4.80244e-09
    outer loop
      vertex -8.48528 -8.78528 10
      vertex -5.58294 -5.88294 0.994521
      vertex 0 -0.3 10
    endloop
  endfacet
  facet normal 0.707107 -0.707107 0
    outer loop
      vertex -5.58294 -5.88294 0.994521
      vertex -8.48528 -8.78528 10
      vertex -5.73077 -6.03077 0.994521
    endloop
  endfacet
  facet normal 0.707106 -0.707108 -6.53191e-07
    outer loop
      vertex -5.73077 -6.03077 0.994521
      vertex -8.48528 -8.78528 10
      vertex -5.87536 -6.17536 0.951056
    endloop
  endfacet
  facet normal 0.707108 -0.707106 5.77906e-07
    outer loop
      vertex -5.87536 -6.17536 0.951056
      vertex -8.48528 -8.78528 10
      vertex -6.01041 -6.31041 0.866025
    endloop
  endfacet
  facet normal 0.707104 -0.70711 -1.20971e-06
    outer loop
      vertex -6.34851 -6.64851 0.207911
      vertex -8.48528 -8.78528 10
      vertex -6.36396 -6.66396 0
    endloop
  endfacet
  facet normal 0.707107 -0.707107 0
    outer loop
      vertex -6.30283 -6.60283 0.406736
      vertex -8.48528 -8.78528 10
      vertex -6.34851 -6.64851 0.207911
    endloop
  endfacet
  facet normal 0.707108 -0.707105 6.66429e-07
    outer loop
      vertex -6.22892 -6.52891 0.587785
      vertex -8.48528 -8.78528 10
      vertex -6.30283 -6.60283 0.406736
    endloop
  endfacet
  facet normal 0.707107 -0.707107 -2.60243e-08
    outer loop
      vertex -6.13 -6.43 0.743144
      vertex -8.48528 -8.78528 10
      vertex -6.22892 -6.52891 0.587785
    endloop
  endfacet
  facet normal 0.707106 -0.707108 -5.9755e-07
    outer loop
      vertex -6.01041 -6.31041 0.866025
      vertex -8.48528 -8.78528 10
      vertex -6.13 -6.43 0.743144
    endloop
  endfacet
  facet normal 0.707107 -0.707107 2.75099e-09
    outer loop
      vertex -4.9652 -5.2652 -0.207912
      vertex 0 -0.3 -10
      vertex -4.94975 -5.24975 0
    endloop
  endfacet
  facet normal 0.707108 -0.707106 1.17375e-06
    outer loop
      vertex -5.01088 -5.31088 -0.406737
      vertex 0 -0.3 -10
      vertex -4.9652 -5.2652 -0.207912
    endloop
  endfacet
  facet normal 0.707107 -0.707107 -5.78215e-09
    outer loop
      vertex -5.08479 -5.38479 -0.587786
      vertex 0 -0.3 -10
      vertex -5.01088 -5.31088 -0.406737
    endloop
  endfacet
  facet normal 0.707107 -0.707107 -7.26727e-09
    outer loop
      vertex -5.18371 -5.48371 -0.743145
      vertex 0 -0.3 -10
      vertex -5.08479 -5.38479 -0.587786
    endloop
  endfacet
  facet normal 0.707107 -0.707107 -8.67039e-09
    outer loop
      vertex -5.3033 -5.6033 -0.866026
      vertex 0 -0.3 -10
      vertex -5.18371 -5.48371 -0.743145
    endloop
  endfacet
  facet normal 0.707107 -0.707107 -1.0137e-08
    outer loop
      vertex -5.43835 -5.73835 -0.951057
      vertex 0 -0.3 -10
      vertex -5.3033 -5.6033 -0.866026
    endloop
  endfacet
  facet normal 0.707107 -0.707107 -1.18349e-08
    outer loop
      vertex -5.58294 -5.88294 -0.994522
      vertex 0 -0.3 -10
      vertex -5.43835 -5.73835 -0.951057
    endloop
  endfacet
  facet normal 0.707107 -0.707107 0
    outer loop
      vertex -8.48528 -8.78528 -10
      vertex -5.58294 -5.88294 -0.994522
      vertex -5.73077 -6.03077 -0.994522
    endloop
  endfacet
  facet normal 0.707106 -0.707108 6.53191e-07
    outer loop
      vertex -8.48528 -8.78528 -10
      vertex -5.73077 -6.03077 -0.994522
      vertex -5.87536 -6.17536 -0.951057
    endloop
  endfacet
  facet normal 0.707108 -0.707106 -5.77906e-07
    outer loop
      vertex -8.48528 -8.78528 -10
      vertex -5.87536 -6.17536 -0.951057
      vertex -6.01041 -6.31041 -0.866026
    endloop
  endfacet
  facet normal 0.707106 -0.707108 5.9755e-07
    outer loop
      vertex -8.48528 -8.78528 -10
      vertex -6.01041 -6.31041 -0.866026
      vertex -6.13 -6.43 -0.743145
    endloop
  endfacet
  facet normal 0.707107 -0.707107 0
    outer loop
      vertex -8.48528 -8.78528 -10
      vertex -6.36396 -6.66396 0
      vertex -8.48528 -8.78528 10
    endloop
  endfacet
  facet normal 0.707107 -0.707107 -4.80244e-09
    outer loop
      vertex -5.58294 -5.88294 -0.994522
      vertex -8.48528 -8.78528 -10
      vertex 0 -0.3 -10
    endloop
  endfacet
  facet normal 0.707107 -0.707107 2.60243e-08
    outer loop
      vertex -6.22892 -6.52891 -0.587786
      vertex -8.48528 -8.78528 -10
      vertex -6.13 -6.43 -0.743145
    endloop
  endfacet
  facet normal 0.707108 -0.707105 -6.66429e-07
    outer loop
      vertex -6.30283 -6.60283 -0.406737
      vertex -8.48528 -8.78528 -10
      vertex -6.22892 -6.52891 -0.587786
    endloop
  endfacet
  facet normal 0.707107 -0.707107 0
    outer loop
      vertex -6.34851 -6.64851 -0.207912
      vertex -8.48528 -8.78528 -10
      vertex -6.30283 -6.60283 -0.406737
    endloop
  endfacet
  facet normal 0.707104 -0.70711 1.20971e-06
    outer loop
      vertex -6.36396 -6.66396 0
      vertex -8.48528 -8.78528 -10
      vertex -6.34851 -6.64851 -0.207912
    endloop
  endfacet
  facet normal 0.703233 0.703233 -0.10453
    outer loop
      vertex -6.34851 -6.64851 0.207911
      vertex -7.42462 -5.6033 0
      vertex -7.40917 -5.58785 0.207911
    endloop
  endfacet
  facet normal 0.703233 0.703233 -0.10453
    outer loop
      vertex -7.42462 -5.6033 0
      vertex -6.34851 -6.64851 0.207911
      vertex -6.36396 -6.66396 0
    endloop
  endfacet
  facet normal 0.672498 0.672498 -0.309019
    outer loop
      vertex -6.30283 -6.60283 0.406736
      vertex -7.40917 -5.58785 0.207911
      vertex -7.36349 -5.54217 0.406736
    endloop
  endfacet
  facet normal 0.672498 0.672498 -0.309019
    outer loop
      vertex -7.40917 -5.58785 0.207911
      vertex -6.30283 -6.60283 0.406736
      vertex -6.34851 -6.64851 0.207911
    endloop
  endfacet
  facet normal -0.147014 -0.147014 -0.978148
    outer loop
      vertex -5.58294 -5.88294 0.994521
      vertex -6.49901 -4.67769 0.951056
      vertex -5.43835 -5.73835 0.951056
    endloop
  endfacet
  facet normal -0.147014 -0.147014 -0.978148
    outer loop
      vertex -6.49901 -4.67769 0.951056
      vertex -5.58294 -5.88294 0.994521
      vertex -6.6436 -4.82228 0.994521
    endloop
  endfacet
  facet normal 0.415628 0.415628 -0.809016
    outer loop
      vertex -6.13 -6.43 0.743144
      vertex -7.07107 -5.24975 0.866025
      vertex -6.01041 -6.31041 0.866025
    endloop
  endfacet
  facet normal 0.415628 0.415628 -0.809016
    outer loop
      vertex -7.07107 -5.24975 0.866025
      vertex -6.13 -6.43 0.743144
      vertex -7.19066 -5.36934 0.743144
    endloop
  endfacet
  facet normal -0.415626 -0.415626 -0.809018
    outer loop
      vertex -5.3033 -5.6033 0.866025
      vertex -6.24437 -4.42305 0.743144
      vertex -5.18371 -5.48371 0.743144
    endloop
  endfacet
  facet normal -0.415626 -0.415626 -0.809018
    outer loop
      vertex -6.24437 -4.42305 0.743144
      vertex -5.3033 -5.6033 0.866025
      vertex -6.36396 -4.54264 0.866025
    endloop
  endfacet
  facet normal 0.672498 0.672498 0.309019
    outer loop
      vertex -7.40917 -5.58785 -0.207912
      vertex -6.30283 -6.60283 -0.406737
      vertex -7.36349 -5.54217 -0.406737
    endloop
  endfacet
  facet normal 0.672498 0.672498 0.309019
    outer loop
      vertex -6.30283 -6.60283 -0.406737
      vertex -7.40917 -5.58785 -0.207912
      vertex -6.34851 -6.64851 -0.207912
    endloop
  endfacet
  facet normal 0.612372 0.612372 -0.500001
    outer loop
      vertex -6.22892 -6.52891 0.587785
      vertex -7.36349 -5.54217 0.406736
      vertex -7.28958 -5.46826 0.587785
    endloop
  endfacet
  facet normal 0.612372 0.612372 -0.500001
    outer loop
      vertex -7.36349 -5.54217 0.406736
      vertex -6.22892 -6.52891 0.587785
      vertex -6.30283 -6.60283 0.406736
    endloop
  endfacet
  facet normal 0.147014 0.147014 -0.978148
    outer loop
      vertex -5.87536 -6.17536 0.951056
      vertex -6.79143 -4.97011 0.994521
      vertex -5.73077 -6.03077 0.994521
    endloop
  endfacet
  facet normal 0.147014 0.147014 -0.978148
    outer loop
      vertex -6.79143 -4.97011 0.994521
      vertex -5.87536 -6.17536 0.951056
      vertex -6.93602 -5.1147 0.951056
    endloop
  endfacet
  facet normal 0.287607 0.287607 -0.913545
    outer loop
      vertex -6.01041 -6.31041 0.866025
      vertex -6.93602 -5.1147 0.951056
      vertex -5.87536 -6.17536 0.951056
    endloop
  endfacet
  facet normal 0.287607 0.287607 -0.913545
    outer loop
      vertex -6.93602 -5.1147 0.951056
      vertex -6.01041 -6.31041 0.866025
      vertex -7.07107 -5.24975 0.866025
    endloop
  endfacet
  facet normal -0.672498 -0.672498 -0.309021
    outer loop
      vertex -4.9652 -5.2652 0.207911
      vertex -6.07154 -4.25022 0.406736
      vertex -6.02586 -4.20454 0.207911
    endloop
  endfacet
  facet normal -0.672498 -0.672498 -0.309021
    outer loop
      vertex -6.07154 -4.25022 0.406736
      vertex -4.9652 -5.2652 0.207911
      vertex -5.01088 -5.31088 0.406736
    endloop
  endfacet
  facet normal -0.287608 -0.287608 -0.913544
    outer loop
      vertex -5.43835 -5.73835 0.951056
      vertex -6.36396 -4.54264 0.866025
      vertex -5.3033 -5.6033 0.866025
    endloop
  endfacet
  facet normal -0.287608 -0.287608 -0.913544
    outer loop
      vertex -6.36396 -4.54264 0.866025
      vertex -5.43835 -5.73835 0.951056
      vertex -6.49901 -4.67769 0.951056
    endloop
  endfacet
  facet normal 0.703233 0.703233 0.104529
    outer loop
      vertex -7.42462 -5.6033 0
      vertex -6.34851 -6.64851 -0.207912
      vertex -7.40917 -5.58785 -0.207912
    endloop
  endfacet
  facet normal 0.703233 0.703233 0.104529
    outer loop
      vertex -6.34851 -6.64851 -0.207912
      vertex -7.42462 -5.6033 0
      vertex -6.36396 -6.66396 0
    endloop
  endfacet
  facet normal 0.147014 0.147014 0.978148
    outer loop
      vertex -6.79143 -4.97011 -0.994522
      vertex -5.87536 -6.17536 -0.951057
      vertex -5.73077 -6.03077 -0.994522
    endloop
  endfacet
  facet normal 0.147014 0.147014 0.978148
    outer loop
      vertex -5.87536 -6.17536 -0.951057
      vertex -6.79143 -4.97011 -0.994522
      vertex -6.93602 -5.1147 -0.951057
    endloop
  endfacet
  facet normal 0.415628 0.415628 0.809016
    outer loop
      vertex -7.07107 -5.24975 -0.866026
      vertex -6.13 -6.43 -0.743145
      vertex -6.01041 -6.31041 -0.866026
    endloop
  endfacet
  facet normal 0.415628 0.415628 0.809016
    outer loop
      vertex -6.13 -6.43 -0.743145
      vertex -7.07107 -5.24975 -0.866026
      vertex -7.19066 -5.36934 -0.743145
    endloop
  endfacet
  facet normal 0.525483 0.525483 -0.66913
    outer loop
      vertex -6.22892 -6.52891 0.587785
      vertex -7.19066 -5.36934 0.743144
      vertex -6.13 -6.43 0.743144
    endloop
  endfacet
  facet normal 0.525483 0.525483 -0.66913
    outer loop
      vertex -7.19066 -5.36934 0.743144
      vertex -6.22892 -6.52891 0.587785
      vertex -7.28958 -5.46826 0.587785
    endloop
  endfacet
  facet normal 0 0 -1
    outer loop
      vertex -5.73077 -6.03077 0.994521
      vertex -6.6436 -4.82228 0.994521
      vertex -5.58294 -5.88294 0.994521
    endloop
  endfacet
  facet normal 0 -0 -1
    outer loop
      vertex -6.6436 -4.82228 0.994521
      vertex -5.73077 -6.03077 0.994521
      vertex -6.79143 -4.97011 0.994521
    endloop
  endfacet
  facet normal -0.703233 -0.703233 -0.104525
    outer loop
      vertex -6.01041 -4.18909 0
      vertex -4.9652 -5.2652 0.207911
      vertex -6.02586 -4.20454 0.207911
    endloop
  endfacet
  facet normal -0.703233 -0.703233 -0.104525
    outer loop
      vertex -4.9652 -5.2652 0.207911
      vertex -6.01041 -4.18909 0
      vertex -4.94975 -5.24975 0
    endloop
  endfacet
  facet normal -0.703233 -0.703233 0.104524
    outer loop
      vertex -4.9652 -5.2652 -0.207912
      vertex -6.01041 -4.18909 0
      vertex -6.02586 -4.20454 -0.207912
    endloop
  endfacet
  facet normal -0.703233 -0.703233 0.104524
    outer loop
      vertex -6.01041 -4.18909 0
      vertex -4.9652 -5.2652 -0.207912
      vertex -4.94975 -5.24975 0
    endloop
  endfacet
  facet normal -0.525483 -0.525483 -0.66913
    outer loop
      vertex -5.18371 -5.48371 0.743144
      vertex -6.14545 -4.32413 0.587785
      vertex -5.08479 -5.38479 0.587785
    endloop
  endfacet
  facet normal -0.525483 -0.525483 -0.66913
    outer loop
      vertex -6.14545 -4.32413 0.587785
      vertex -5.18371 -5.48371 0.743144
      vertex -6.24437 -4.42305 0.743144
    endloop
  endfacet
  facet normal -0.612373 -0.612373 -0.5
    outer loop
      vertex -5.01088 -5.31088 0.406736
      vertex -6.14545 -4.32413 0.587785
      vertex -6.07154 -4.25022 0.406736
    endloop
  endfacet
  facet normal -0.612373 -0.612373 -0.5
    outer loop
      vertex -6.14545 -4.32413 0.587785
      vertex -5.01088 -5.31088 0.406736
      vertex -5.08479 -5.38479 0.587785
    endloop
  endfacet
  facet normal 0.525483 0.525483 0.66913
    outer loop
      vertex -7.19066 -5.36934 -0.743145
      vertex -6.22892 -6.52891 -0.587786
      vertex -6.13 -6.43 -0.743145
    endloop
  endfacet
  facet normal 0.525483 0.525483 0.66913
    outer loop
      vertex -6.22892 -6.52891 -0.587786
      vertex -7.19066 -5.36934 -0.743145
      vertex -7.28958 -5.46826 -0.587786
    endloop
  endfacet
  facet normal -0.287608 -0.287608 0.913544
    outer loop
      vertex -6.36396 -4.54264 -0.866026
      vertex -5.43835 -5.73835 -0.951057
      vertex -5.3033 -5.6033 -0.866026
    endloop
  endfacet
  facet normal -0.287608 -0.287608 0.913544
    outer loop
      vertex -5.43835 -5.73835 -0.951057
      vertex -6.36396 -4.54264 -0.866026
      vertex -6.49901 -4.67769 -0.951057
    endloop
  endfacet
  facet normal -0.525483 -0.525483 0.66913
    outer loop
      vertex -6.14545 -4.32413 -0.587786
      vertex -5.18371 -5.48371 -0.743145
      vertex -5.08479 -5.38479 -0.587786
    endloop
  endfacet
  facet normal -0.525483 -0.525483 0.66913
    outer loop
      vertex -5.18371 -5.48371 -0.743145
      vertex -6.14545 -4.32413 -0.587786
      vertex -6.24437 -4.42305 -0.743145
    endloop
  endfacet
  facet normal -0.612373 -0.612373 0.5
    outer loop
      vertex -6.14545 -4.32413 -0.587786
      vertex -5.01088 -5.31088 -0.406737
      vertex -6.07154 -4.25022 -0.406737
    endloop
  endfacet
  facet normal -0.612373 -0.612373 0.5
    outer loop
      vertex -5.01088 -5.31088 -0.406737
      vertex -6.14545 -4.32413 -0.587786
      vertex -5.08479 -5.38479 -0.587786
    endloop
  endfacet
  facet normal -0.415626 -0.415626 0.809018
    outer loop
      vertex -6.24437 -4.42305 -0.743145
      vertex -5.3033 -5.6033 -0.866026
      vertex -5.18371 -5.48371 -0.743145
    endloop
  endfacet
  facet normal -0.415626 -0.415626 0.809018
    outer loop
      vertex -5.3033 -5.6033 -0.866026
      vertex -6.24437 -4.42305 -0.743145
      vertex -6.36396 -4.54264 -0.866026
    endloop
  endfacet
  facet normal -0.672498 -0.672498 0.309021
    outer loop
      vertex -6.07154 -4.25022 -0.406737
      vertex -4.9652 -5.2652 -0.207912
      vertex -6.02586 -4.20454 -0.207912
    endloop
  endfacet
  facet normal -0.672498 -0.672498 0.309021
    outer loop
      vertex -4.9652 -5.2652 -0.207912
      vertex -6.07154 -4.25022 -0.406737
      vertex -5.01088 -5.31088 -0.406737
    endloop
  endfacet
  facet normal 0.287607 0.287607 0.913545
    outer loop
      vertex -6.93602 -5.1147 -0.951057
      vertex -6.01041 -6.31041 -0.866026
      vertex -5.87536 -6.17536 -0.951057
    endloop
  endfacet
  facet normal 0.287607 0.287607 0.913545
    outer loop
      vertex -6.01041 -6.31041 -0.866026
      vertex -6.93602 -5.1147 -0.951057
      vertex -7.07107 -5.24975 -0.866026
    endloop
  endfacet
  facet normal 0.612372 0.612372 0.500001
    outer loop
      vertex -7.36349 -5.54217 -0.406737
      vertex -6.22892 -6.52891 -0.587786
      vertex -7.28958 -5.46826 -0.587786
    endloop
  endfacet
  facet normal 0.612372 0.612372 0.500001
    outer loop
      vertex -6.22892 -6.52891 -0.587786
      vertex -7.36349 -5.54217 -0.406737
      vertex -6.30283 -6.60283 -0.406737
    endloop
  endfacet
  facet normal -0.147014 -0.147014 0.978148
    outer loop
      vertex -6.49901 -4.67769 -0.951057
      vertex -5.58294 -5.88294 -0.994522
      vertex -5.43835 -5.73835 -0.951057
    endloop
  endfacet
  facet normal -0.147014 -0.147014 0.978148
    outer loop
      vertex -5.58294 -5.88294 -0.994522
      vertex -6.49901 -4.67769 -0.951057
      vertex -6.6436 -4.82228 -0.994522
    endloop
  endfacet
  facet normal 0 0 1
    outer loop
      vertex -6.6436 -4.82228 -0.994522
      vertex -5.73077 -6.03077 -0.994522
      vertex -5.58294 -5.88294 -0.994522
    endloop
  endfacet
  facet normal 0 0 1
    outer loop
      vertex -5.73077 -6.03077 -0.994522
      vertex -6.6436 -4.82228 -0.994522
      vertex -6.79143 -4.97011 -0.994522
    endloop
  endfacet
endsolid OpenSCAD_Model
